<svg width="127" height="30" viewBox="0 0 127 30" fill="none" xmlns="http://www.w3.org/2000/svg">
<path d="M4.41051 0.023565C4.41051 0.0150816 4.40862 0.00754081 4.40768 0C4.40768 0.0179094 4.40674 0.0358195 4.40674 0.0537289C4.40768 0.0433603 4.41051 0.0339336 4.41051 0.023565Z" fill="url(#paint0_linear_4164_431773)"/>
<path d="M27.1987 16.355C26.2222 16.1533 25.6434 16.6388 25.4369 17.5946C25.3681 17.9132 25.3012 18.2337 25.2239 18.5504C24.7262 20.5884 23.7025 22.3351 22.2046 23.7849C20.6992 25.2413 18.4114 25.0198 17.1634 23.3504C16.1368 21.9769 16.3037 20.8411 17.7638 19.2584C19.7142 17.145 19.6425 14.0154 17.6017 12.1122C15.5118 10.1637 12.2842 10.2976 10.3565 12.4138C8.54478 14.4028 8.64092 17.4211 10.7506 19.4582C12.798 21.4359 11.3312 23.9961 9.52889 24.5485C8.24219 24.9425 7.03089 24.7455 6.02038 23.7387C4.28403 22.009 3.24052 19.9314 2.80879 17.5295C2.641 16.5963 2.04808 16.1882 1.14126 16.3343C0.259886 16.4766 -0.0568411 17.1035 0.00820127 17.9462C0.0336526 18.2714 0.0760704 18.5985 0.15431 18.9143C1.08564 22.6858 3.10573 25.6872 6.43043 27.7619C12.4181 31.6475 20.9914 30.3288 25.0882 24.8925C26.8754 22.9809 27.7992 20.6563 28.2677 18.1319C28.4251 17.2788 28.1433 16.5501 27.1987 16.355Z" fill="url(#paint1_linear_4164_431773)"/>
<path d="M27.5149 12.573C27.3613 12.4938 27.2434 12.3468 27.2086 12.163C26.9814 10.9828 26.593 9.8385 26.0558 8.763C25.5109 7.67429 24.82 6.66853 24.0009 5.77683C22.965 4.6476 21.7443 3.71631 20.3719 3.00841C19.7252 2.67473 19.0494 2.39478 18.3613 2.17421C18.054 2.0743 17.8843 1.74627 17.9824 1.43804C18.0813 1.12981 18.4103 0.961085 18.7185 1.05912C19.4679 1.29948 20.2041 1.60488 20.9082 1.96778C22.4032 2.73883 23.7341 3.75401 24.8634 4.98505C25.756 5.95781 26.5091 7.05312 27.102 8.23985C27.6874 9.41056 28.1097 10.6557 28.3576 11.9414C28.4189 12.2591 28.2105 12.5654 27.8938 12.6267C27.759 12.6541 27.6271 12.6314 27.5149 12.573Z" fill="url(#paint2_linear_4164_431773)"/>
<path d="M0.612467 13.118C0.395669 13.0059 0.263704 12.7646 0.30235 12.5101C0.533287 10.983 1.01213 9.50787 1.72568 8.12507C2.31763 6.97698 3.05946 5.91845 3.93042 4.97867C5.04363 3.7778 6.34725 2.78429 7.80828 2.02739C9.03367 1.39113 10.3429 0.936799 11.6993 0.674756C12.017 0.613487 12.3243 0.8218 12.3846 1.13851C12.4459 1.45617 12.2385 1.76252 11.9209 1.82379C10.6747 2.06415 9.47292 2.48172 8.34745 3.06613C7.00707 3.76177 5.81091 4.67232 4.79007 5.77423C3.99075 6.63671 3.31019 7.60759 2.76725 8.66141C2.11214 9.93015 1.67289 11.2837 1.46081 12.6844C1.41274 13.004 1.11393 13.2236 0.794388 13.1755C0.728406 13.1661 0.667138 13.1463 0.612467 13.118Z" fill="url(#paint3_linear_4164_431773)"/>
<path d="M6.62185 11.3291C6.33435 11.1811 6.22218 10.8276 6.37017 10.5401C6.69631 9.90671 7.09692 9.31476 7.55879 8.7803C8.00841 8.25999 8.51836 7.79151 9.07638 7.3862C9.79841 6.86211 10.594 6.44831 11.4395 6.15704C12.1964 5.89594 12.9844 5.7357 13.7818 5.68103C14.1042 5.65935 14.3832 5.90254 14.4058 6.22491C14.4275 6.54728 14.1843 6.82629 13.862 6.84891C13.1673 6.89604 12.4811 7.03555 11.8222 7.26272C11.0851 7.51722 10.3932 7.87729 9.76448 8.33351C9.27998 8.6851 8.83602 9.09325 8.44578 9.54475C8.04423 10.0095 7.69641 10.5251 7.41175 11.0765C7.26187 11.3649 6.90934 11.4771 6.62185 11.3291Z" fill="url(#paint4_linear_4164_431773)"/>
<path d="M22.4182 16.6014C22.1976 16.4873 22.0656 16.2404 22.1099 15.983C22.2099 15.4005 22.2428 14.8048 22.207 14.2128C22.174 13.6576 22.0826 13.1043 21.9337 12.568C21.8008 12.0873 21.6217 11.6179 21.4002 11.173C21.1777 10.7224 20.9109 10.2935 20.6084 9.89572C20.2219 9.38955 19.7751 8.93144 19.2784 8.53367C18.4083 7.83803 17.3724 7.32337 16.2913 7.0519C15.9793 6.9746 15.7879 6.65506 15.8661 6.34118C15.9453 6.02729 16.263 5.83783 16.5769 5.91606C17.8202 6.22806 19.0088 6.81907 20.0098 7.6184C20.581 8.07556 21.0957 8.60248 21.5406 9.185C21.8884 9.64122 22.1948 10.1351 22.4502 10.6517C22.7038 11.1635 22.9093 11.7027 23.062 12.2541C23.2326 12.8696 23.3391 13.5059 23.3759 14.1431C23.4154 14.8236 23.3777 15.5089 23.2637 16.1791C23.209 16.4977 22.9064 16.7117 22.5878 16.6579C22.5275 16.6485 22.47 16.6287 22.4182 16.6014Z" fill="url(#paint5_linear_4164_431773)"/>
<path d="M19.7085 4.33104C18.6886 3.80507 17.6028 3.43368 16.4829 3.22819C15.4904 3.04627 14.4752 2.99537 13.4647 3.07644C12.7163 3.13676 11.9698 3.27061 11.2468 3.47327C10.603 3.65331 9.97145 3.89084 9.36913 4.17834C8.698 4.49788 8.05609 4.8834 7.46036 5.3236C6.84484 5.77793 6.27363 6.29542 5.76085 6.86192C5.48467 7.16733 5.22168 7.49158 4.97849 7.8262C4.6335 8.30127 4.32056 8.80934 4.05003 9.33531C3.56742 10.2713 3.21394 11.2648 3.00092 12.2875C2.88592 12.838 2.81334 13.4007 2.78035 13.9644C2.77846 13.9974 2.77752 14.0304 2.77563 14.0634C2.78977 14.3801 3.05181 14.6308 3.37136 14.6252C3.68619 14.6205 3.93786 14.3679 3.94823 14.0568C3.94823 14.0474 3.95106 14.0379 3.95106 14.0276C3.95106 14.0257 3.95012 14.0238 3.95012 14.0219C3.98028 13.5186 4.04532 13.0171 4.14806 12.526C4.33941 11.607 4.65707 10.7134 5.0916 9.87165C5.33574 9.39846 5.61663 8.9413 5.92769 8.5143C6.14637 8.21361 6.38297 7.92235 6.63087 7.64805C7.09181 7.13905 7.60552 6.67435 8.15883 6.2662C8.69423 5.87031 9.27204 5.52437 9.87625 5.23594C10.4192 4.97766 10.9876 4.76369 11.5663 4.60157C12.2177 4.4187 12.8888 4.29899 13.5628 4.24432C14.4714 4.1708 15.3839 4.21698 16.2756 4.381C17.2823 4.56575 18.2579 4.89943 19.176 5.37261C19.4634 5.5206 19.816 5.40843 19.9649 5.12094C20.1091 4.8325 19.996 4.47903 19.7085 4.33104Z" fill="url(#paint6_linear_4164_431773)"/>
<path d="M25.9006 13.1509C25.7875 12.3082 25.582 11.4759 25.2879 10.6766C25.0174 9.94042 24.6724 9.22876 24.2614 8.56328C23.89 7.9619 23.463 7.39351 22.9908 6.87225C22.774 6.63283 22.4035 6.61398 22.1641 6.83078C21.9247 7.04758 21.9058 7.41802 22.1236 7.65744C22.5477 8.12591 22.9314 8.63775 23.2651 9.17786C23.6346 9.77735 23.9456 10.4174 24.1888 11.08C24.4527 11.7992 24.6384 12.5486 24.7402 13.3074C24.7977 13.7325 24.8251 14.1614 24.8298 14.5893L24.8336 14.5903C24.8401 14.7467 24.9071 14.8862 25.0126 14.9871C25.0155 14.9899 25.0192 14.9918 25.0221 14.9946C25.0456 15.0163 25.0711 15.0371 25.0975 15.055C25.1069 15.0616 25.1173 15.0653 25.1267 15.071C25.1493 15.0842 25.171 15.0964 25.1946 15.1068C25.2125 15.1144 25.2323 15.1181 25.2511 15.1238C25.2681 15.1285 25.2851 15.136 25.303 15.1389C25.3407 15.1464 25.3793 15.1502 25.4199 15.1502C25.7328 15.1483 25.9845 14.9023 25.9995 14.594C25.9995 14.5742 26.0005 14.5554 25.9995 14.5356C25.9939 14.0728 25.9618 13.61 25.9006 13.1509Z" fill="url(#paint7_linear_4164_431773)"/>
<path d="M6.07434 15.1059C6.31188 15.0352 6.4872 14.8165 6.49191 14.5544C6.50134 13.9634 6.57863 13.3724 6.72285 12.7965C6.85764 12.2573 7.04993 11.7304 7.29501 11.2299C7.51464 10.7822 7.77762 10.3542 8.07643 9.95644C8.37806 9.55489 8.71928 9.18162 9.09067 8.84794C9.56385 8.42095 10.0879 8.05333 10.6488 7.75453C11.6329 7.23138 12.7461 6.9175 13.8583 6.84963C14.1798 6.83172 14.4267 6.55271 14.4069 6.2294C14.3871 5.90703 14.11 5.66101 13.7867 5.6808C12.5076 5.7581 11.2294 6.11911 10.0992 6.72049C9.45357 7.06454 8.8503 7.48683 8.30642 7.97792C7.88037 8.3625 7.48824 8.79044 7.14137 9.25232C6.79826 9.70854 6.49663 10.2006 6.24495 10.7143C5.96312 11.2883 5.74255 11.8935 5.58796 12.5128C5.423 13.1745 5.33346 13.8541 5.32309 14.5347C5.31743 14.858 5.5757 15.1238 5.89902 15.1294C5.9584 15.1313 6.01779 15.1228 6.07434 15.1059Z" fill="url(#paint8_linear_4164_431773)"/>
<path d="M14.5556 18.7135V18.5127C15.6471 18.2959 16.47 17.3335 16.47 16.1779C16.47 14.863 15.4039 13.7969 14.089 13.7969C12.7741 13.7969 11.708 14.863 11.708 16.1779C11.708 17.3326 12.5309 18.2959 13.6224 18.5127V18.7135C13.6224 18.8049 13.696 18.8784 13.7874 18.8784H13.8307V20.0294H13.235L13.6884 21.0417L13.4612 25.2306L14.1418 25.9508L14.8092 25.1769L14.5151 21.0332L14.943 20.0294H14.4067V18.8765C14.4896 18.869 14.5556 18.7993 14.5556 18.7135Z" fill="white"/>
<path d="M13.0145 15.1983C13.0381 15.1701 13.0626 15.1427 13.0673 15.1031C13.0739 15.0324 13.0051 14.9806 12.9372 15.007C12.907 15.0183 12.8844 15.04 12.8646 15.0645C12.4046 15.6282 12.3047 16.2465 12.5809 16.9214C12.6242 17.0289 12.6761 17.0628 12.7374 17.0383C12.8033 17.0119 12.809 16.9554 12.7628 16.8404C12.5215 16.2437 12.6016 15.6951 13.0145 15.1983Z" fill="url(#paint9_linear_4164_431773)"/>
<path d="M13.9492 14.471C13.7748 14.4946 13.6061 14.5379 13.4468 14.6114C13.4128 14.6265 13.3798 14.6425 13.3591 14.6746C13.3374 14.7076 13.3346 14.7434 13.3544 14.7783C13.3732 14.8103 13.4025 14.8245 13.4458 14.8226C13.459 14.8179 13.4788 14.8141 13.4967 14.8056C13.6513 14.733 13.8134 14.6897 13.9822 14.6652C14.0481 14.6557 14.0962 14.6275 14.0915 14.5521C14.0868 14.4917 14.0312 14.4597 13.9492 14.471Z" fill="url(#paint10_linear_4164_431773)"/>
<path d="M40.4771 22.2735C38.8294 22.2735 37.4353 21.8634 36.2948 21.0452C35.1542 20.2271 34.3643 19.2223 33.926 18.0327L37.0847 17.058C37.3675 17.7499 37.8161 18.306 38.4401 18.7349C39.0641 19.1638 39.8145 19.3787 40.692 19.3787C41.3452 19.3787 41.8712 19.2515 42.2709 18.9885C42.6705 18.7255 42.8751 18.4135 42.8751 18.0525C42.8751 17.4775 42.3783 17.0288 41.3735 16.7074L37.7765 15.5961C36.8019 15.2935 36.0224 14.8165 35.437 14.1727C34.8526 13.5289 34.5698 12.7692 34.5792 11.8916C34.5698 10.7313 35.0571 9.74723 36.0412 8.93753C37.0262 8.12878 38.2639 7.71875 39.7551 7.71875C41.2274 7.71875 42.5339 8.0694 43.664 8.78106C44.7952 9.49272 45.5549 10.3599 45.9357 11.3836L42.8845 12.28C42.6017 11.7832 42.1823 11.3836 41.6271 11.0716C41.0719 10.7596 40.4573 10.6031 39.7843 10.6031C39.2291 10.6031 38.7804 10.7106 38.4392 10.9245C38.098 11.1394 37.9321 11.4119 37.9321 11.7437C37.9321 12.2216 38.2441 12.5524 38.8681 12.7381L42.3868 13.8589C43.6056 14.2387 44.551 14.7166 45.2146 15.2916C45.8773 15.8666 46.2091 16.6951 46.2091 17.7772C46.2091 19.045 45.6831 20.097 44.6208 20.9453C43.5575 21.7937 42.1738 22.2122 40.4677 22.2122L40.4771 22.2735Z" fill="#3D3B3B"/>
<path d="M63.7581 12.6187C64.4895 13.3888 64.86 14.4907 64.86 15.9235V21.9279H61.6721V16.6351C61.6721 15.1628 61.1357 14.4219 60.0536 14.4219C58.8744 14.4219 58.2797 15.241 58.2702 16.8783V21.9279H55.0814V16.6351C55.0814 15.1628 54.5451 14.4219 53.463 14.4219C52.2838 14.4219 51.689 15.241 51.689 16.8783V21.9279H48.4917V11.7515H51.689V12.746C52.4205 11.8976 53.3565 11.4688 54.497 11.4688C55.8421 11.4688 56.8262 11.9174 57.4502 12.8242C58.2985 11.9174 59.4193 11.4688 60.804 11.4688C62.0425 11.4678 63.0266 11.8486 63.7581 12.6187Z" fill="#3D3B3B"/>
<path d="M71.9838 22.2116C70.5991 22.2116 69.4294 21.695 68.4745 20.6714C67.5196 19.6477 67.0417 18.3705 67.0417 16.8397C67.0417 15.3099 67.5196 14.0326 68.4745 13.009C69.4294 11.9853 70.5991 11.4688 71.9838 11.4688C73.1932 11.4688 74.1678 11.8778 74.9181 12.6875V11.7515H78.1154V21.9288H74.9181V20.9928C74.148 21.8015 73.1734 22.2116 71.9932 22.2116H71.9838ZM72.5588 19.3847C73.2705 19.3847 73.8558 19.1509 74.3139 18.673C74.772 18.1951 75.0058 17.5815 75.0058 16.8303C75.0058 16.08 74.772 15.4748 74.3139 15.0073C73.8558 14.5397 73.2714 14.305 72.5692 14.305C71.8773 14.305 71.3117 14.5388 70.8631 15.0073C70.4144 15.4748 70.19 16.079 70.19 16.8303C70.19 17.5909 70.4144 18.2046 70.8631 18.673C71.3117 19.1406 71.8763 19.3753 72.5692 19.3753L72.5588 19.3847Z" fill="#3D3B3B"/>
<path d="M84.1998 13.1244C84.5024 12.5682 84.9313 12.1497 85.4771 11.8764C86.0228 11.603 86.6563 11.5154 87.3877 11.603V14.5958C86.2962 14.4101 85.4969 14.5666 84.9794 15.0633C84.4628 15.561 84.2093 16.4376 84.2093 17.6951V21.9452H81.012V11.7699H84.2093V13.1442L84.1998 13.1244Z" fill="#3D3B3B"/>
<path d="M96.5724 21.5975C95.7344 21.9293 94.9059 22.0942 94.0764 22.0942C92.8774 22.0942 91.981 21.753 91.3768 21.0705C90.7725 20.3881 90.47 19.453 90.47 18.254V14.5402H88.8911V11.752H90.47V8.55469H93.6673V11.752H96.4065V14.5402H93.6673V18.254C93.6673 18.9657 94.0179 19.3164 94.7202 19.3164C95.1104 19.3164 95.4705 19.2287 95.8023 19.0534L96.5724 21.5975Z" fill="#3D3B3B"/>
<path d="M110.787 7.95312V21.9319H107.472V16.3263H101.964V21.9319H98.6501V7.95312H101.964V13.3241H107.472V7.95312H110.787Z" fill="url(#paint11_linear_4164_431773)"/>
<path d="M119.337 17.3405H116.939V21.9319H113.664V7.95312H120.653C122.126 7.95312 123.324 8.43008 124.241 9.38588C125.157 10.3417 125.615 11.4332 125.615 12.6718C125.615 13.588 125.361 14.4363 124.865 15.2064C124.367 15.9765 123.666 16.5515 122.759 16.922L126.132 21.9328H122.321L119.337 17.3405ZM116.929 14.4354H120.4C120.975 14.4354 121.453 14.2601 121.823 13.9188C122.193 13.5776 122.378 13.1582 122.378 12.6614C122.378 12.1845 122.203 11.7744 121.842 11.4332C121.481 11.092 121.052 10.9167 120.546 10.9167H116.938L116.929 14.4354Z" fill="url(#paint12_linear_4164_431773)"/>
<defs>
<linearGradient id="paint0_linear_4164_431773" x1="3.32561" y1="0.0265534" x2="4.41014" y2="0.0265534" gradientUnits="userSpaceOnUse">
<stop stop-color="#2DA17C"/>
<stop offset="1" stop-color="#557ABC"/>
</linearGradient>
<linearGradient id="paint1_linear_4164_431773" x1="15.9175" y1="13.2823" x2="9.52498" y2="30.6413" gradientUnits="userSpaceOnUse">
<stop stop-color="#E12751"/>
<stop offset="1" stop-color="#F58229"/>
</linearGradient>
<linearGradient id="paint2_linear_4164_431773" x1="17.9535" y1="6.83516" x2="28.3682" y2="6.83516" gradientUnits="userSpaceOnUse">
<stop stop-color="#E12751"/>
<stop offset="1" stop-color="#F58229"/>
</linearGradient>
<linearGradient id="paint3_linear_4164_431773" x1="0.295318" y1="6.92371" x2="12.3948" y2="6.92371" gradientUnits="userSpaceOnUse">
<stop stop-color="#E12751"/>
<stop offset="1" stop-color="#F58229"/>
</linearGradient>
<linearGradient id="paint4_linear_4164_431773" x1="6.3048" y1="8.53724" x2="14.4066" y2="8.53724" gradientUnits="userSpaceOnUse">
<stop stop-color="#E12751"/>
<stop offset="1" stop-color="#F58229"/>
</linearGradient>
<linearGradient id="paint5_linear_4164_431773" x1="15.8494" y1="11.283" x2="23.3916" y2="11.283" gradientUnits="userSpaceOnUse">
<stop stop-color="#E12751"/>
<stop offset="1" stop-color="#F58229"/>
</linearGradient>
<linearGradient id="paint6_linear_4164_431773" x1="2.77305" y1="8.83158" x2="20.0259" y2="8.83158" gradientUnits="userSpaceOnUse">
<stop stop-color="#E12751"/>
<stop offset="1" stop-color="#F58229"/>
</linearGradient>
<linearGradient id="paint7_linear_4164_431773" x1="21.9728" y1="10.9145" x2="26.0008" y2="10.9145" gradientUnits="userSpaceOnUse">
<stop stop-color="#E12751"/>
<stop offset="1" stop-color="#F58229"/>
</linearGradient>
<linearGradient id="paint8_linear_4164_431773" x1="13.5126" y1="11.0888" x2="6.10007" y2="9.69725" gradientUnits="userSpaceOnUse">
<stop stop-color="#E12751"/>
<stop offset="1" stop-color="#F58229"/>
</linearGradient>
<linearGradient id="paint9_linear_4164_431773" x1="13.2611" y1="13.9322" x2="12.1765" y2="18.1661" gradientUnits="userSpaceOnUse">
<stop stop-color="#E12751"/>
<stop offset="1" stop-color="#F58229"/>
</linearGradient>
<linearGradient id="paint10_linear_4164_431773" x1="14.9193" y1="13.5672" x2="12.1563" y2="16.0474" gradientUnits="userSpaceOnUse">
<stop stop-color="#E12751"/>
<stop offset="1" stop-color="#F58229"/>
</linearGradient>
<linearGradient id="paint11_linear_4164_431773" x1="110.267" y1="5.15038" x2="101.629" y2="20.395" gradientUnits="userSpaceOnUse">
<stop stop-color="#E12751"/>
<stop offset="1" stop-color="#F58229"/>
</linearGradient>
<linearGradient id="paint12_linear_4164_431773" x1="125.952" y1="8.26856" x2="114.772" y2="20.5913" gradientUnits="userSpaceOnUse">
<stop stop-color="#E12751"/>
<stop offset="1" stop-color="#F58229"/>
</linearGradient>
</defs>
</svg>
