<svg xmlns="http://www.w3.org/2000/svg" xmlns:xlink="http://www.w3.org/1999/xlink" width="1920" zoomAndPan="magnify" viewBox="0 0 1440 809.999993" height="1080" preserveAspectRatio="xMidYMid meet" version="1.2"><defs><clipPath id="44af7fee48"><path d="M 659.671875 153 L 834 153 L 834 446 L 659.671875 446 Z M 659.671875 153 "/></clipPath><clipPath id="679e1cba9a"><path d="M 668 237 L 834.414062 237 L 834.414062 348 L 668 348 Z M 668 237 "/></clipPath><clipPath id="ed6c0b51e5"><path d="M 652 642 L 830 642 L 830 748.046875 L 652 748.046875 Z M 652 642 "/></clipPath></defs><g id="51bfb11aaf"><path style=" stroke:none;fill-rule:evenodd;fill:#fbc9b3;fill-opacity:1;" d="M 669.902344 253.039062 C 672.621094 250.085938 675.265625 248.523438 677.824219 248.363281 C 680.542969 250.445312 683.027344 253.359375 685.257812 257.117188 C 686.789062 259.515625 688.542969 263 690.546875 267.554688 C 687.5 266.671875 682.90625 265.558594 676.746094 264.199219 C 671.296875 262.757812 666.777344 261.480469 663.179688 260.359375 C 663.421875 260.199219 665.664062 257.761719 669.902344 253.039062 "/><path style=" stroke:none;fill-rule:evenodd;fill:#fbc9b3;fill-opacity:1;" d="M 729.1875 310.488281 C 722.632812 305.054688 713.511719 300.855469 701.828125 297.894531 C 703.503906 291.503906 705.867188 284.785156 708.90625 277.75 C 711.390625 278.386719 714.605469 278.796875 718.5625 279.003906 C 722.53125 279.230469 726.925781 279.585938 731.765625 280.089844 C 736.613281 280.589844 741.347656 282.527344 745.988281 285.902344 C 741.75 291.421875 738.714844 295.460938 736.867188 298.015625 C 733.828125 302.421875 731.269531 306.570312 729.1875 310.488281 "/><g clip-rule="nonzero" clip-path="url(#44af7fee48)"><path style=" stroke:none;fill-rule:evenodd;fill:#2e2d2d;fill-opacity:1;" d="M 816.078125 293.21875 C 811.277344 305.136719 807.074219 317.207031 803.476562 329.445312 C 802.359375 333.117188 802.398438 336.640625 803.597656 339.996094 C 810.320312 360.066406 816.761719 380.496094 822.921875 401.289062 C 823.800781 404.726562 824.367188 406.769531 824.601562 407.40625 C 827.320312 414.445312 823.765625 421.996094 813.921875 430.074219 C 812.804688 427.757812 811.640625 424.640625 810.441406 420.722656 C 809.15625 415.765625 808.277344 412.644531 807.796875 411.359375 C 807.5625 412.878906 807.722656 414.835938 808.277344 417.234375 C 808.679688 418.679688 809.277344 420.796875 810.074219 423.597656 C 811.519531 428.628906 810.917969 432.351562 808.277344 434.757812 C 791.875 442.910156 773.394531 446.425781 752.835938 445.308594 C 734.269531 444.269531 716.425781 439.554688 699.304688 431.152344 C 700.910156 422.035156 703.066406 406.722656 705.785156 385.21875 C 708.585938 363.945312 710.507812 348 711.550781 337.363281 C 724.910156 344.15625 735.308594 347.558594 742.753906 347.558594 C 760.195312 347.558594 783.242188 331.367188 811.875 298.980469 C 813 297.699219 814.398438 295.777344 816.078125 293.21875 Z M 833.964844 239.722656 C 828.285156 237.25 822.320312 236.96875 816.078125 238.890625 C 798.074219 244.25 784.394531 251.042969 775.035156 259.28125 C 764.957031 267.75 755.710938 276.390625 747.3125 285.1875 C 745.707031 286.867188 744.1875 288.46875 742.753906 289.988281 C 743.636719 288.789062 744.46875 287.589844 745.265625 286.386719 C 741.1875 283.269531 735.308594 281.226562 727.628906 280.269531 C 725.632812 280.027344 722.511719 279.746094 718.265625 279.425781 C 714.429688 278.949219 711.34375 278.386719 709.027344 277.75 C 709.027344 277.429688 709.027344 277.074219 709.027344 276.671875 C 709.027344 273.792969 702.746094 270.515625 690.183594 266.832031 C 688.34375 262.597656 686.664062 259.355469 685.148438 257.117188 C 682.980469 253.515625 680.582031 250.6875 677.945312 248.605469 C 675.386719 248.765625 672.78125 250.320312 670.144531 253.28125 C 666.058594 257.761719 663.863281 260.039062 663.542969 260.113281 C 664.257812 260.359375 665.101562 260.601562 666.058594 260.835938 C 663.742188 260.515625 661.742188 260.234375 660.054688 260 C 657.421875 216.980469 673.34375 181.441406 707.828125 153.367188 L 780.070312 173.042969 C 784.957031 175.519531 790.113281 179.480469 795.5625 184.917969 C 809.644531 198.34375 821.242188 213.460938 830.367188 230.25 C 832.042969 233.371094 833.246094 236.527344 833.964844 239.722656 "/></g><g clip-rule="nonzero" clip-path="url(#679e1cba9a)"><path style=" stroke:none;fill-rule:evenodd;fill:#3b3c39;fill-opacity:1;" d="M 679.144531 317.574219 C 678.339844 315.492188 677.027344 313.375 675.179688 311.210938 C 674.859375 310.734375 674.261719 310.09375 673.378906 309.289062 C 672.902344 308.8125 672.421875 308.332031 671.945312 307.855469 C 671.222656 307.132812 670.464844 306.292969 669.65625 305.335938 C 669.421875 305.335938 669.179688 305.335938 668.945312 305.335938 C 669.265625 304.933594 669.546875 304.734375 669.78125 304.734375 L 689.460938 304.378906 C 691.464844 304.296875 694.382812 304.257812 698.226562 304.257812 L 698.460938 304.015625 C 698.949219 304.015625 699.425781 304.015625 699.90625 304.015625 L 700.027344 304.015625 C 700.664062 302.816406 701.386719 301.382812 702.183594 299.695312 C 702.425781 299.140625 702.746094 298.617188 703.148438 298.140625 C 704.347656 298.382812 705.585938 298.738281 706.863281 299.214844 C 715.75 301.859375 723.027344 305.335938 728.707031 309.65625 C 728.867188 309.730469 728.992188 309.851562 729.066406 310.011719 C 731.230469 306.414062 733.828125 302.375 736.867188 297.894531 C 738.308594 295.984375 740.269531 293.339844 742.753906 289.988281 C 744.1875 288.46875 745.707031 286.867188 747.3125 285.1875 C 755.710938 276.390625 764.957031 267.75 775.035156 259.28125 C 784.394531 251.042969 798.074219 244.25 816.078125 238.890625 C 822.320312 236.96875 828.285156 237.25 833.964844 239.722656 C 834.199219 240.847656 834.359375 241.925781 834.445312 242.964844 L 834.445312 246.207031 C 834.445312 246.441406 834.445312 246.761719 834.445312 247.164062 C 834.359375 251.644531 833.160156 256.085938 830.84375 260.480469 L 818.84375 286.988281 C 817.875 288.984375 817.042969 291.027344 816.320312 293.097656 L 816.078125 293.21875 C 814.398438 295.777344 813 297.699219 811.875 298.980469 C 783.242188 331.367188 760.195312 347.558594 742.753906 347.558594 C 735.308594 347.558594 724.910156 344.15625 711.550781 337.363281 C 707.707031 335.28125 703.628906 333.007812 699.304688 330.523438 C 690.425781 325.324219 683.703125 321.011719 679.144531 317.574219 "/></g><path style=" stroke:none;fill-rule:evenodd;fill:#282726;fill-opacity:1;" d="M 711.550781 337.363281 C 710.507812 348 708.585938 363.945312 705.785156 385.21875 C 703.066406 406.722656 700.910156 422.035156 699.304688 431.152344 C 698.828125 430.917969 698.421875 430.671875 698.105469 430.429688 C 695.066406 427.554688 690.386719 423.234375 684.058594 417.480469 C 678.863281 412.4375 674.945312 407.445312 672.300781 402.488281 C 666.703125 395.695312 664.183594 387.53125 664.746094 378.019531 C 665.222656 369.382812 668.0625 361.230469 673.257812 353.554688 L 673.257812 353.433594 C 674.703125 345.601562 675.828125 339.714844 676.625 335.796875 C 677.816406 329.070312 678.769531 323.234375 679.503906 318.285156 L 679.503906 318.230469 C 679.417969 318.023438 679.296875 317.796875 679.144531 317.574219 C 683.703125 321.011719 690.425781 325.324219 699.304688 330.523438 C 703.628906 333.007812 707.707031 335.28125 711.550781 337.363281 "/><path style=" stroke:none;fill-rule:evenodd;fill:#201e1d;fill-opacity:1;" d="M 666.058594 260.835938 L 666.179688 261.078125 C 669.226562 261.875 672.65625 262.839844 676.503906 263.957031 C 676.585938 263.957031 676.699219 263.957031 676.859375 263.957031 C 682.859375 265.398438 687.339844 266.476562 690.304688 267.199219 C 690.304688 267.039062 690.265625 266.917969 690.183594 266.832031 C 702.746094 270.515625 709.027344 273.792969 709.027344 276.671875 C 709.027344 277.074219 709.027344 277.429688 709.027344 277.75 L 708.90625 277.75 C 708.746094 277.992188 708.625 278.3125 708.550781 278.703125 C 708.390625 278.789062 708.304688 279.03125 708.304688 279.425781 C 706.542969 283.503906 705.109375 287.503906 703.984375 291.421875 C 703.664062 292.621094 703.382812 293.902344 703.148438 295.261719 L 703.148438 295.382812 C 702.90625 296.265625 702.707031 297.097656 702.550781 297.894531 C 702.707031 297.894531 702.90625 297.980469 703.148438 298.140625 C 702.746094 298.617188 702.425781 299.140625 702.183594 299.695312 C 701.386719 301.382812 700.664062 302.816406 700.027344 304.015625 L 699.90625 304.015625 C 699.425781 304.015625 698.949219 304.015625 698.460938 304.015625 L 698.226562 304.257812 C 694.382812 304.257812 691.464844 304.296875 689.460938 304.378906 L 669.78125 304.734375 C 669.546875 304.734375 669.265625 304.933594 668.945312 305.335938 C 666.621094 304.859375 663.140625 304.378906 658.5 303.890625 C 649.855469 303.019531 641.183594 301.980469 632.453125 300.78125 C 626.621094 300.058594 621.417969 298.015625 616.859375 294.664062 C 613.972656 292.421875 611.816406 289.78125 610.371094 286.746094 C 605.65625 277.074219 605.691406 267.199219 610.492188 257.117188 C 611.9375 254.238281 613.8125 251.519531 616.136719 248.964844 C 618.136719 246.566406 620.09375 244.089844 622.015625 241.523438 C 629.378906 231.375 635.820312 220.703125 641.339844 209.503906 C 647.34375 197.746094 654.617188 187.070312 663.179688 177.476562 C 664.699219 175.957031 666.179688 174.402344 667.621094 172.800781 C 676.746094 162.484375 687.78125 155.851562 700.75 152.890625 C 701.949219 152.730469 703.222656 152.609375 704.582031 152.53125 L 705.304688 152.65625 L 705.429688 152.65625 L 707.828125 153.367188 C 673.34375 181.441406 657.421875 216.980469 660.054688 260 C 661.742188 260.234375 663.742188 260.515625 666.058594 260.835938 "/><path style=" stroke:none;fill-rule:evenodd;fill:#94542d;fill-opacity:1;" d="M 735.339844 143.179688 C 734.972656 142.742188 734.570312 142.367188 734.136719 142.074219 C 739.097656 137.925781 745.652344 132.707031 753.789062 126.398438 C 762.339844 119.699219 769.84375 114.144531 776.300781 109.738281 C 774.472656 107.332031 772.421875 105.109375 770.152344 103.078125 C 762.761719 96.554688 754.015625 93.507812 743.90625 93.949219 C 742.453125 93.976562 741.03125 94.070312 739.621094 94.222656 C 738.375 94.484375 737.136719 94.753906 735.890625 95.046875 C 720.589844 99.007812 708.671875 107.847656 700.140625 121.5625 C 698.722656 124.28125 697.589844 127.214844 696.734375 130.363281 C 696.671875 131.523438 696.726562 132.695312 696.90625 133.886719 C 697.5625 137.625 699.425781 140.304688 702.503906 141.917969 C 705.210938 142.207031 709.609375 142.132812 715.683594 141.691406 C 721.320312 141.324219 725.71875 141.402344 728.859375 141.917969 C 731.53125 140.839844 733.695312 141.261719 735.339844 143.179688 "/><path style=" stroke:none;fill-rule:evenodd;fill:#724422;fill-opacity:1;" d="M 776.300781 109.738281 C 769.84375 114.144531 762.339844 119.699219 753.789062 126.398438 C 745.652344 132.707031 739.097656 137.925781 734.136719 142.074219 C 734.570312 142.367188 734.972656 142.742188 735.339844 143.179688 L 736.433594 144.773438 C 737.464844 146.609375 738.5625 149.617188 739.734375 153.796875 C 741.046875 158.269531 745.296875 160.648438 752.46875 160.949219 L 752.035156 167.769531 C 754.230469 167.542969 756.210938 166.558594 757.960938 164.796875 C 758.769531 163.992188 760.195312 162.117188 762.246094 159.1875 C 763.933594 156.769531 765.464844 155.082031 766.859375 154.125 C 768.914062 152.65625 771.285156 152.035156 773.996094 152.25 C 775.167969 154.894531 775.207031 157.6875 774.109375 160.621094 C 773.152344 163.113281 771.511719 165.417969 769.167969 167.542969 C 770.1875 170.335938 771.765625 172.828125 773.882812 175.03125 L 777.070312 171.394531 C 781.976562 160.984375 784.761719 151.003906 785.417969 141.476562 C 785.6875 137.578125 785.585938 133.875 785.089844 130.363281 C 784.433594 125.378906 782.894531 120.644531 780.476562 116.175781 C 779.238281 113.890625 777.851562 111.753906 776.300781 109.738281 "/><path style=" stroke:none;fill-rule:evenodd;fill:#fbc9b3;fill-opacity:1;" d="M 705.539062 160.824219 C 705.117188 157.050781 704.367188 155.035156 703.289062 154.792969 C 702.222656 154.539062 701.6875 152.703125 701.667969 149.300781 C 701.648438 145.898438 701.769531 143.320312 702.035156 141.558594 C 704.789062 141.925781 709.234375 141.859375 715.355469 141.382812 C 721 141.027344 725.457031 141.082031 728.691406 141.558594 C 732.054688 140.25 734.578125 141.203125 736.257812 144.445312 C 737.335938 146.246094 738.480469 149.300781 739.679688 153.621094 C 741 158.0625 745.265625 160.460938 752.46875 160.824219 L 751.925781 167.667969 C 754.210938 167.421875 756.257812 166.402344 758.054688 164.601562 C 758.890625 163.757812 760.335938 161.902344 762.378906 159.027344 C 764.058594 156.617188 765.625 154.886719 767.058594 153.808594 C 769.101562 152.363281 771.445312 151.765625 774.089844 152.007812 C 775.402344 154.640625 775.46875 157.460938 774.269531 160.460938 C 773.300781 162.980469 771.625 165.324219 769.222656 167.488281 C 768.257812 168.445312 766.636719 169.519531 764.355469 170.722656 C 761.957031 171.921875 760.277344 172.886719 759.3125 173.605469 C 754.746094 180.804688 748.203125 186.324219 739.679688 190.164062 C 731.15625 194.007812 722.746094 195.140625 714.457031 193.585938 C 712.421875 192.863281 711.042969 191.363281 710.3125 189.085938 C 710.078125 188.253906 709.863281 186.511719 709.683594 183.867188 C 709.515625 181.207031 709.394531 179.828125 709.328125 179.726562 C 709.234375 179.613281 706.496094 178.949219 701.132812 177.738281 C 704.488281 170.242188 705.960938 164.601562 705.539062 160.824219 "/><path style=" stroke:none;fill-rule:evenodd;fill:#c2866c;fill-opacity:1;" d="M 770.835938 184.4375 C 770.359375 184.917969 767.976562 186.976562 763.691406 190.613281 C 759.417969 194.25 756.753906 197.746094 755.710938 201.109375 C 751.707031 204.464844 746.832031 207.070312 741.066406 208.90625 C 737.390625 210.019531 732.066406 211.023438 725.109375 211.902344 C 721.347656 209.90625 718.949219 208.585938 717.90625 207.941406 C 715.261719 206.027344 713.425781 202.75 712.386719 198.109375 L 714.550781 193.433594 C 722.867188 194.953125 731.304688 193.789062 739.867188 189.949219 C 748.4375 186.117188 754.953125 180.597656 759.433594 173.402344 C 760.390625 172.679688 762.070312 171.722656 764.46875 170.523438 C 766.710938 169.324219 768.351562 168.246094 769.390625 167.28125 C 770.515625 170.082031 772.113281 172.558594 774.191406 174.722656 C 773.472656 178.722656 772.355469 181.957031 770.835938 184.4375 "/><path style=" stroke:none;fill-rule:evenodd;fill:#3b3c39;fill-opacity:1;" d="M 777.4375 170.878906 C 778.636719 171.84375 779.519531 172.605469 780.070312 173.15625 C 781.515625 175.398438 782.433594 177 782.839844 177.953125 C 783.71875 179.875 784.113281 181.675781 784.039062 183.351562 C 778.757812 201.832031 772.515625 218.734375 765.3125 234.09375 L 758.234375 232.648438 L 762.792969 240.921875 C 758.148438 243.648438 751.109375 247.605469 741.667969 252.804688 C 733.507812 257.519531 726.945312 262.242188 721.984375 266.953125 C 720.0625 269.109375 717.550781 270.589844 714.429688 271.394531 C 711.464844 272.109375 708.464844 272.109375 705.429688 271.394531 C 702.390625 270.675781 699.832031 269.316406 697.75 267.308594 C 695.507812 265.238281 694.1875 262.632812 693.78125 259.515625 C 692.742188 254.886719 692.226562 249.601562 692.226562 243.6875 C 692.300781 240.25 692.628906 234.925781 693.183594 227.730469 C 694.382812 213.507812 694.148438 202.871094 692.460938 195.832031 C 692.628906 195.832031 695.386719 196.113281 700.75 196.667969 L 699.425781 191.636719 C 703.101562 188.75 706.507812 185.75 709.628906 182.640625 C 709.945312 185.917969 710.226562 187.992188 710.460938 188.871094 C 711.109375 191.195312 712.46875 192.714844 714.550781 193.433594 L 712.386719 198.109375 C 708.148438 211.21875 705.304688 222.539062 703.863281 232.050781 C 701.949219 244.851562 702.0625 256.402344 704.226562 266.710938 L 705.304688 265.753906 C 707.460938 263.835938 709.863281 261.199219 712.507812 257.835938 C 715.308594 254.003906 717.46875 251.164062 718.984375 249.320312 C 722.425781 245.167969 727.03125 239.96875 732.789062 233.726562 C 740.710938 225.011719 745.390625 219.859375 746.832031 218.257812 C 757.792969 205.867188 765.792969 194.585938 770.835938 184.4375 C 772.355469 181.957031 773.472656 178.722656 774.191406 174.722656 L 777.4375 170.878906 "/><path style=" stroke:none;fill-rule:evenodd;fill:#151412;fill-opacity:1;" d="M 716.089844 216.832031 C 716.125 217.609375 716.519531 220.65625 717.296875 225.976562 C 719.6875 226.753906 721.984375 227.441406 724.207031 228.046875 L 728.425781 224.851562 L 725.109375 211.960938 C 721.3125 209.945312 718.890625 208.605469 717.859375 207.949219 C 716.511719 210.394531 715.917969 213.355469 716.089844 216.832031 "/><path style=" stroke:none;fill-rule:evenodd;fill:#232221;fill-opacity:1;" d="M 705.257812 265.746094 C 707.480469 263.816406 709.882812 261.191406 712.46875 257.855469 C 715.320312 254.023438 717.484375 251.195312 718.984375 249.355469 C 720.421875 244.699219 721.453125 241.1875 722.089844 238.832031 C 723.214844 234.75 723.917969 231.148438 724.207031 228.046875 C 721.984375 227.441406 719.6875 226.753906 717.296875 225.976562 C 712.355469 235.066406 709.207031 241.402344 707.855469 245 C 705.035156 252.476562 704.171875 259.390625 705.257812 265.746094 "/><path style=" stroke:none;fill-rule:evenodd;fill:#3b3c39;fill-opacity:1;" d="M 726.550781 441.167969 C 735.160156 443.378906 743.964844 444.71875 752.957031 445.1875 C 773.433594 446.304688 791.914062 442.703125 808.398438 434.394531 C 808.324219 437.429688 808.277344 440.304688 808.277344 443.023438 C 808.199219 452.226562 808.078125 461.417969 807.917969 470.609375 C 807.515625 493.003906 811.199219 514.59375 818.964844 535.378906 C 827.917969 559.367188 832.484375 584.074219 832.644531 609.507812 C 832.71875 630.691406 832.449219 651.964844 831.800781 673.308594 C 831.164062 676.195312 830.367188 678.789062 829.398438 681.105469 C 825.726562 687.347656 819.441406 690.464844 810.5625 690.464844 C 803.117188 690.382812 795.878906 688.46875 788.839844 684.703125 C 787.234375 683.589844 786.476562 681.910156 786.558594 679.671875 C 786.558594 678.632812 786.839844 677.027344 787.394531 674.875 C 789.953125 657.605469 789.597656 640.324219 786.316406 623.054688 C 781.917969 599.628906 774.316406 577.480469 763.511719 556.609375 C 760.636719 550.613281 757.953125 544.222656 755.46875 537.421875 C 751.472656 526.710938 747.59375 514.714844 743.832031 501.4375 C 741.835938 492.246094 740.269531 485.566406 739.152344 481.402344 C 737.871094 476.933594 735.066406 469.8125 730.753906 460.058594 C 727.949219 453.816406 726.550781 447.625 726.550781 441.46875 C 726.550781 441.394531 726.550781 441.300781 726.550781 441.167969 "/><path style=" stroke:none;fill-rule:evenodd;fill:#201e1d;fill-opacity:1;" d="M 726.550781 441.167969 C 726.550781 441.300781 726.550781 441.394531 726.550781 441.46875 C 726.550781 447.625 727.949219 453.816406 730.753906 460.058594 C 735.066406 469.8125 737.871094 476.933594 739.152344 481.402344 C 740.269531 485.566406 741.835938 492.246094 743.832031 501.4375 C 743.992188 504.238281 744.347656 507.191406 744.910156 510.3125 C 745.15625 511.191406 745.390625 512.15625 745.632812 513.1875 C 745.632812 513.355469 745.671875 513.554688 745.753906 513.789062 C 746.636719 517.066406 748.070312 521.914062 750.066406 528.304688 C 750.949219 531.742188 751.511719 535.828125 751.753906 540.539062 C 751.988281 545.339844 751.914062 550.773438 751.511719 556.855469 C 751.4375 558.371094 751.316406 559.769531 751.15625 561.050781 L 751.15625 561.164062 C 750.433594 573.082031 750.273438 581.234375 750.667969 585.640625 C 750.996094 586.839844 751.953125 590.035156 753.554688 595.234375 C 754.914062 599.3125 755.871094 602.628906 756.433594 605.1875 C 758.113281 612.945312 757.632812 619.542969 754.992188 624.976562 C 749.550781 634.253906 740.710938 639.011719 728.464844 639.246094 C 718.789062 639.492188 708.304688 637.09375 697.027344 632.050781 C 696.941406 631.011719 697.0625 629.894531 697.382812 628.695312 C 698.03125 621.5 698.265625 614.304688 698.105469 607.109375 C 697.859375 599.03125 697.46875 591 696.90625 582.996094 C 695.386719 559.007812 691.222656 535.339844 684.425781 511.988281 C 677.628906 488.5625 672.902344 464.78125 670.257812 440.625 C 669.703125 428.3125 670.378906 415.519531 672.300781 402.242188 C 675.019531 407.125 678.941406 412.121094 684.058594 417.234375 C 690.386719 423 695.066406 427.320312 698.105469 430.195312 C 707.144531 434.832031 716.425781 438.433594 725.953125 440.988281 C 726.1875 440.988281 726.394531 441.027344 726.550781 441.113281 L 726.550781 441.167969 "/><path style=" stroke:none;fill-rule:evenodd;fill:#f5f5f5;fill-opacity:1;" d="M 725.117188 211.902344 L 728.445312 224.757812 L 724.238281 227.972656 C 723.9375 231.074219 723.234375 234.664062 722.125 238.722656 C 721.460938 241.09375 720.429688 244.597656 719.023438 249.253906 C 722.425781 245.113281 727.003906 239.902344 732.769531 233.625 C 740.671875 224.984375 745.371094 219.8125 746.851562 218.105469 C 757.859375 205.699219 765.875 194.429688 770.902344 184.308594 C 770.386719 184.824219 767.359375 187.257812 761.816406 191.625 C 758.121094 194.578125 755.824219 197.640625 754.945312 200.820312 C 751.464844 204.292969 746.851562 206.957031 741.085938 208.800781 C 737.457031 209.90625 732.140625 210.9375 725.117188 211.902344 Z M 717.917969 207.800781 C 715.253906 205.878906 713.445312 202.625 712.480469 198.054688 C 708.195312 211.125 705.351562 222.4375 703.945312 231.964844 C 702.023438 244.746094 702.136719 256.308594 704.285156 266.65625 L 705.277344 265.652344 C 704.171875 259.296875 705.015625 252.394531 707.828125 244.925781 C 709.234375 241.308594 712.402344 234.953125 717.363281 225.867188 C 716.546875 220.542969 716.144531 217.515625 716.144531 216.785156 C 715.917969 213.234375 716.511719 210.246094 717.917969 207.800781 "/><path style=" stroke:none;fill-rule:evenodd;fill:#232221;fill-opacity:1;" d="M 728.445312 639.246094 C 718.761719 639.464844 708.304688 637.066406 697.074219 632.03125 C 694.261719 633.964844 689.871094 636.25 683.882812 638.910156 C 676.566406 642.085938 671.796875 644.269531 669.582031 645.449219 C 658.714844 651.28125 653.023438 658.824219 652.507812 668.0625 C 653.324219 671.828125 655.613281 674.300781 659.382812 675.484375 C 662.484375 676.449219 666.105469 676.476562 670.25 675.59375 C 674.75 675.371094 679.519531 674.300781 684.546875 672.382812 C 687.867188 671.125 692.300781 669.054688 697.851562 666.179688 C 704.058594 662.992188 708.492188 660.820312 711.15625 659.636719 C 716.171875 657.566406 720.90625 656.238281 725.34375 655.644531 C 733.695312 654.164062 739.164062 652.949219 741.75 651.980469 C 747.882812 649.921875 752.316406 646.667969 755.054688 642.238281 C 756.679688 639.574219 757.492188 636.691406 757.492188 633.589844 C 757.492188 630.410156 756.679688 627.535156 755.054688 624.9375 C 749.582031 634.253906 740.710938 639.023438 728.445312 639.246094 Z M 772.234375 710.058594 C 765.585938 720.328125 762.183594 729.644531 762.03125 737.984375 C 763.878906 740.792969 766.878906 742.453125 771.015625 742.976562 C 772.496094 743.203125 776.078125 743.230469 781.769531 743.089844 C 788.941406 742.714844 795.113281 741.234375 800.277344 738.648438 C 806.636719 735.546875 810.855469 731.039062 812.917969 725.136719 C 814.324219 721.144531 817.023438 714.640625 821.007812 705.628906 C 824.710938 697.351562 827.328125 690.851562 828.882812 686.117188 C 829.035156 685.378906 829.210938 683.71875 829.4375 681.132812 C 825.742188 687.347656 819.460938 690.449219 810.589844 690.449219 C 803.128906 690.371094 795.878906 688.453125 788.867188 684.675781 C 785.839844 690.523438 780.289062 698.972656 772.234375 710.058594 "/><path style=" stroke:none;fill-rule:evenodd;fill:#201e1d;fill-opacity:1;" d="M 711.945312 160.648438 C 712.535156 159.449219 714.15625 158.839844 716.800781 158.839844 C 728.457031 158.839844 734.277344 160.761719 734.277344 164.601562 C 734.277344 166.402344 733.433594 167.964844 731.757812 169.289062 C 729.589844 170.722656 726.46875 171.441406 722.390625 171.441406 C 715.179688 171.441406 711.578125 168.621094 711.578125 162.980469 C 711.578125 161.78125 711.699219 161.003906 711.945312 160.648438 Z M 702.210938 154.886719 C 702.210938 150.320312 703.113281 149.789062 704.910156 153.265625 C 706.589844 156.984375 707.433594 159.625 707.433594 161.183594 C 707.433594 163.457031 706.355469 164.546875 704.191406 164.425781 C 702.867188 159.382812 702.210938 156.207031 702.210938 154.886719 "/><path style=" stroke:none;fill-rule:evenodd;fill:#2e2d2d;fill-opacity:1;" d="M 770.125 162.925781 C 769.609375 163.644531 769.0625 164.21875 768.5 164.640625 C 766.691406 168.789062 765.90625 174.28125 766.15625 181.101562 C 766.382812 187.070312 766.015625 191.636719 765.078125 194.785156 L 758.589844 203.96875 C 760.570312 193.949219 761.777344 185.078125 762.191406 177.328125 C 762.386719 172.492188 763.109375 168.460938 764.355469 165.265625 L 764.179688 163.46875 C 764.179688 160.582031 765.4375 158.660156 767.957031 157.707031 C 770.359375 156.742188 771.566406 157.40625 771.566406 159.683594 C 771.566406 160.402344 771.082031 161.492188 770.125 162.925781 "/><g clip-rule="nonzero" clip-path="url(#ed6c0b51e5)"><path style=" stroke:none;fill-rule:evenodd;fill:#151412;fill-opacity:1;" d="M 652.5 668.035156 C 653.296875 671.792969 655.621094 674.273438 659.457031 675.472656 C 662.503906 676.429688 666.058594 676.46875 670.144531 675.59375 C 674.703125 675.351562 679.503906 674.273438 684.546875 672.351562 C 687.828125 671.070312 692.261719 669 697.859375 666.113281 C 704.03125 662.917969 708.464844 660.761719 711.183594 659.636719 C 716.230469 657.566406 720.90625 656.199219 725.230469 655.5625 C 733.632812 654.117188 739.152344 652.917969 741.789062 651.964844 C 747.875 649.882812 752.269531 646.605469 754.992188 642.125 C 756.191406 645.964844 756.273438 649.527344 755.234375 652.808594 C 753.949219 656.480469 751.472656 658.917969 747.789062 660.117188 C 746.75 660.445312 744.394531 661.316406 740.710938 662.757812 C 737.671875 663.957031 735.1875 664.800781 733.265625 665.277344 C 727.347656 666.636719 722.792969 665.558594 719.585938 662.035156 C 715.75 662.84375 711.503906 664.3125 706.863281 666.476562 C 705.90625 666.957031 701.863281 669.035156 694.75 672.710938 C 684.585938 677.910156 676.023438 680.503906 669.058594 680.503906 C 664.425781 682.03125 660.300781 681.59375 656.699219 679.195312 C 652.78125 676.636719 651.382812 672.914062 652.5 668.035156 Z M 812.964844 725.128906 C 814.324219 721.136719 817.003906 714.613281 821 705.582031 C 824.683594 697.34375 827.320312 690.859375 828.921875 686.148438 C 830.683594 693.023438 829.164062 700.699219 824.367188 709.179688 C 823.082031 711.492188 821 714.96875 818.121094 719.609375 C 815.71875 723.769531 814.042969 727.402344 813.078125 730.523438 C 810.601562 737.328125 805.320312 742.125 797.238281 744.917969 C 791.558594 746.921875 784.199219 747.953125 775.160156 748.039062 C 771.15625 748.121094 767.910156 747.523438 765.4375 746.238281 C 762.152344 744.476562 760.992188 741.722656 761.957031 737.964844 C 763.871094 740.757812 766.871094 742.433594 770.957031 742.996094 C 772.476562 743.15625 776.078125 743.15625 781.757812 742.996094 C 788.875 742.679688 795.035156 741.234375 800.238281 738.675781 C 806.644531 735.566406 810.882812 731.039062 812.964844 725.128906 "/></g><g style="fill:#000000;fill-opacity:1;"><g transform="translate(86.578127, 125.599936)"><path style="stroke:none" d="M 13.265625 0.34375 C 11.023438 0.34375 9.050781 -0.117188 7.34375 -1.046875 C 5.644531 -1.972656 4.3125 -3.367188 3.34375 -5.234375 C 2.382812 -7.097656 1.90625 -9.398438 1.90625 -12.140625 C 1.90625 -14.867188 2.382812 -17.164062 3.34375 -19.03125 C 4.3125 -20.894531 5.644531 -22.289062 7.34375 -23.21875 C 9.050781 -24.15625 11.023438 -24.625 13.265625 -24.625 C 15.597656 -24.625 17.582031 -24.164062 19.21875 -23.25 C 20.851562 -22.332031 22.019531 -20.941406 22.71875 -19.078125 L 19.203125 -16.9375 L 18.796875 -16.953125 C 18.273438 -18.210938 17.566406 -19.113281 16.671875 -19.65625 C 15.785156 -20.207031 14.648438 -20.484375 13.265625 -20.484375 C 11.253906 -20.484375 9.679688 -19.816406 8.546875 -18.484375 C 7.421875 -17.148438 6.859375 -15.035156 6.859375 -12.140625 C 6.859375 -9.242188 7.421875 -7.128906 8.546875 -5.796875 C 9.679688 -4.460938 11.253906 -3.796875 13.265625 -3.796875 C 16.421875 -3.796875 18.351562 -5.332031 19.0625 -8.40625 L 19.46875 -8.40625 L 23.015625 -6.5625 C 22.347656 -4.257812 21.210938 -2.53125 19.609375 -1.375 C 18.003906 -0.226562 15.890625 0.34375 13.265625 0.34375 Z M 13.265625 0.34375 "/></g></g><g style="fill:#000000;fill-opacity:1;"><g transform="translate(110.382032, 125.599936)"><path style="stroke:none" d="M 7.609375 0.34375 C 5.953125 0.34375 4.691406 -0.0976562 3.828125 -0.984375 C 2.960938 -1.878906 2.53125 -3.234375 2.53125 -5.046875 L 2.53125 -25.671875 L 7.125 -25.671875 L 7.125 -5.234375 C 7.125 -4.109375 7.585938 -3.546875 8.515625 -3.546875 C 8.785156 -3.546875 9.066406 -3.59375 9.359375 -3.6875 L 9.59375 -3.625 L 10.015625 -0.078125 C 9.753906 0.046875 9.414062 0.144531 9 0.21875 C 8.582031 0.300781 8.117188 0.34375 7.609375 0.34375 Z M 7.609375 0.34375 "/></g></g><g style="fill:#000000;fill-opacity:1;"><g transform="translate(120.906213, 125.599936)"><path style="stroke:none" d="M 10.640625 0.34375 C 8.847656 0.34375 7.273438 -0.0195312 5.921875 -0.75 C 4.566406 -1.488281 3.515625 -2.566406 2.765625 -3.984375 C 2.015625 -5.410156 1.640625 -7.128906 1.640625 -9.140625 C 1.640625 -11.160156 2.015625 -12.882812 2.765625 -14.3125 C 3.515625 -15.738281 4.566406 -16.816406 5.921875 -17.546875 C 7.273438 -18.285156 8.847656 -18.65625 10.640625 -18.65625 C 12.429688 -18.65625 14.003906 -18.285156 15.359375 -17.546875 C 16.722656 -16.816406 17.78125 -15.738281 18.53125 -14.3125 C 19.28125 -12.882812 19.65625 -11.160156 19.65625 -9.140625 C 19.65625 -7.128906 19.28125 -5.410156 18.53125 -3.984375 C 17.78125 -2.566406 16.722656 -1.488281 15.359375 -0.75 C 14.003906 -0.0195312 12.429688 0.34375 10.640625 0.34375 Z M 10.640625 -3.546875 C 13.484375 -3.546875 14.90625 -5.410156 14.90625 -9.140625 C 14.90625 -11.078125 14.539062 -12.5 13.8125 -13.40625 C 13.082031 -14.3125 12.023438 -14.765625 10.640625 -14.765625 C 7.796875 -14.765625 6.375 -12.890625 6.375 -9.140625 C 6.375 -5.410156 7.796875 -3.546875 10.640625 -3.546875 Z M 10.640625 -3.546875 "/></g></g><g style="fill:#000000;fill-opacity:1;"><g transform="translate(142.18697, 125.599936)"><path style="stroke:none" d="M 8.5625 0.34375 C 7.3125 0.34375 6.164062 0.195312 5.125 -0.09375 C 4.082031 -0.382812 3.191406 -0.785156 2.453125 -1.296875 C 1.722656 -1.816406 1.179688 -2.410156 0.828125 -3.078125 L 3.390625 -5.828125 L 3.734375 -5.828125 C 4.347656 -5.003906 5.066406 -4.390625 5.890625 -3.984375 C 6.722656 -3.578125 7.625 -3.375 8.59375 -3.375 C 9.488281 -3.375 10.164062 -3.53125 10.625 -3.84375 C 11.082031 -4.164062 11.3125 -4.628906 11.3125 -5.234375 C 11.3125 -5.691406 11.144531 -6.078125 10.8125 -6.390625 C 10.488281 -6.710938 9.960938 -6.960938 9.234375 -7.140625 L 6.8125 -7.71875 C 4.988281 -8.15625 3.660156 -8.816406 2.828125 -9.703125 C 1.992188 -10.597656 1.578125 -11.726562 1.578125 -13.09375 C 1.578125 -14.238281 1.867188 -15.226562 2.453125 -16.0625 C 3.035156 -16.90625 3.851562 -17.546875 4.90625 -17.984375 C 5.957031 -18.429688 7.1875 -18.65625 8.59375 -18.65625 C 10.25 -18.65625 11.617188 -18.414062 12.703125 -17.9375 C 13.785156 -17.46875 14.628906 -16.832031 15.234375 -16.03125 L 12.78125 -13.375 L 12.453125 -13.375 C 11.941406 -13.957031 11.367188 -14.378906 10.734375 -14.640625 C 10.097656 -14.910156 9.382812 -15.046875 8.59375 -15.046875 C 6.78125 -15.046875 5.875 -14.476562 5.875 -13.34375 C 5.875 -12.875 6.039062 -12.488281 6.375 -12.1875 C 6.71875 -11.882812 7.316406 -11.640625 8.171875 -11.453125 L 10.421875 -10.953125 C 12.285156 -10.554688 13.644531 -9.914062 14.5 -9.03125 C 15.351562 -8.15625 15.78125 -6.976562 15.78125 -5.5 C 15.78125 -4.332031 15.492188 -3.304688 14.921875 -2.421875 C 14.347656 -1.535156 13.519531 -0.851562 12.4375 -0.375 C 11.351562 0.101562 10.0625 0.34375 8.5625 0.34375 Z M 8.5625 0.34375 "/></g></g><g style="fill:#000000;fill-opacity:1;"><g transform="translate(159.068824, 125.599936)"><path style="stroke:none" d="M 18.09375 -8.125 L 6.328125 -8.125 C 6.460938 -6.53125 6.914062 -5.367188 7.6875 -4.640625 C 8.457031 -3.910156 9.515625 -3.546875 10.859375 -3.546875 C 11.910156 -3.546875 12.757812 -3.742188 13.40625 -4.140625 C 14.0625 -4.535156 14.585938 -5.128906 14.984375 -5.921875 L 15.34375 -5.921875 L 18.390625 -3.96875 C 17.796875 -2.6875 16.894531 -1.644531 15.6875 -0.84375 C 14.476562 -0.0507812 12.867188 0.34375 10.859375 0.34375 C 8.960938 0.34375 7.328125 -0.015625 5.953125 -0.734375 C 4.578125 -1.453125 3.515625 -2.519531 2.765625 -3.9375 C 2.015625 -5.363281 1.640625 -7.097656 1.640625 -9.140625 C 1.640625 -11.222656 2.03125 -12.976562 2.8125 -14.40625 C 3.601562 -15.832031 4.664062 -16.894531 6 -17.59375 C 7.34375 -18.300781 8.851562 -18.65625 10.53125 -18.65625 C 13.113281 -18.65625 15.09375 -17.96875 16.46875 -16.59375 C 17.851562 -15.226562 18.546875 -13.21875 18.546875 -10.5625 C 18.546875 -9.59375 18.507812 -8.84375 18.4375 -8.3125 Z M 14.140625 -11.09375 C 14.097656 -12.488281 13.773438 -13.503906 13.171875 -14.140625 C 12.566406 -14.773438 11.6875 -15.09375 10.53125 -15.09375 C 8.207031 -15.09375 6.835938 -13.757812 6.421875 -11.09375 Z M 14.140625 -11.09375 "/></g></g><g style="fill:#000000;fill-opacity:1;"><g transform="translate(178.971815, 125.599936)"><path style="stroke:none" d=""/></g></g><g style="fill:#000000;fill-opacity:1;"><g transform="translate(186.989454, 125.599936)"><path style="stroke:none" d="M 12.53125 -24.265625 C 14.269531 -24.265625 15.753906 -23.945312 16.984375 -23.3125 C 18.222656 -22.675781 19.15625 -21.785156 19.78125 -20.640625 C 20.414062 -19.492188 20.734375 -18.164062 20.734375 -16.65625 C 20.734375 -15.132812 20.414062 -13.800781 19.78125 -12.65625 C 19.15625 -11.519531 18.222656 -10.632812 16.984375 -10 C 15.753906 -9.363281 14.269531 -9.046875 12.53125 -9.046875 L 7.953125 -9.046875 L 7.953125 0 L 3.15625 0 L 3.15625 -24.265625 Z M 11.90625 -12.84375 C 14.570312 -12.84375 15.90625 -14.113281 15.90625 -16.65625 C 15.90625 -19.195312 14.570312 -20.46875 11.90625 -20.46875 L 7.953125 -20.46875 L 7.953125 -12.84375 Z M 11.90625 -12.84375 "/></g></g><g style="fill:#000000;fill-opacity:1;"><g transform="translate(208.685185, 125.599936)"><path style="stroke:none" d="M 2.640625 0 L 2.640625 -18.3125 L 7.109375 -18.3125 L 7.109375 -15.59375 L 7.453125 -15.515625 C 7.898438 -16.535156 8.484375 -17.285156 9.203125 -17.765625 C 9.921875 -18.242188 10.796875 -18.484375 11.828125 -18.484375 C 12.859375 -18.484375 13.644531 -18.304688 14.1875 -17.953125 L 13.421875 -13.984375 L 13.0625 -13.90625 C 12.769531 -14.03125 12.484375 -14.117188 12.203125 -14.171875 C 11.921875 -14.234375 11.582031 -14.265625 11.1875 -14.265625 C 9.90625 -14.265625 8.925781 -13.8125 8.25 -12.90625 C 7.570312 -12.007812 7.234375 -10.5625 7.234375 -8.5625 L 7.234375 0 Z M 2.640625 0 "/></g></g><g style="fill:#000000;fill-opacity:1;"><g transform="translate(222.562485, 125.599936)"><path style="stroke:none" d="M 10.640625 0.34375 C 8.847656 0.34375 7.273438 -0.0195312 5.921875 -0.75 C 4.566406 -1.488281 3.515625 -2.566406 2.765625 -3.984375 C 2.015625 -5.410156 1.640625 -7.128906 1.640625 -9.140625 C 1.640625 -11.160156 2.015625 -12.882812 2.765625 -14.3125 C 3.515625 -15.738281 4.566406 -16.816406 5.921875 -17.546875 C 7.273438 -18.285156 8.847656 -18.65625 10.640625 -18.65625 C 12.429688 -18.65625 14.003906 -18.285156 15.359375 -17.546875 C 16.722656 -16.816406 17.78125 -15.738281 18.53125 -14.3125 C 19.28125 -12.882812 19.65625 -11.160156 19.65625 -9.140625 C 19.65625 -7.128906 19.28125 -5.410156 18.53125 -3.984375 C 17.78125 -2.566406 16.722656 -1.488281 15.359375 -0.75 C 14.003906 -0.0195312 12.429688 0.34375 10.640625 0.34375 Z M 10.640625 -3.546875 C 13.484375 -3.546875 14.90625 -5.410156 14.90625 -9.140625 C 14.90625 -11.078125 14.539062 -12.5 13.8125 -13.40625 C 13.082031 -14.3125 12.023438 -14.765625 10.640625 -14.765625 C 7.796875 -14.765625 6.375 -12.890625 6.375 -9.140625 C 6.375 -5.410156 7.796875 -3.546875 10.640625 -3.546875 Z M 10.640625 -3.546875 "/></g></g><g style="fill:#000000;fill-opacity:1;"><g transform="translate(243.843242, 125.599936)"><path style="stroke:none" d="M 12.640625 -4.359375 L 13.828125 -0.96875 C 13.328125 -0.550781 12.703125 -0.226562 11.953125 0 C 11.203125 0.226562 10.347656 0.34375 9.390625 0.34375 C 7.410156 0.34375 5.90625 -0.191406 4.875 -1.265625 C 3.851562 -2.347656 3.34375 -3.921875 3.34375 -5.984375 L 3.34375 -14.671875 L 0.546875 -14.671875 L 0.546875 -18.328125 L 3.34375 -18.328125 L 3.34375 -21.890625 L 7.9375 -22.640625 L 7.9375 -18.328125 L 13.125 -18.328125 L 13.125 -14.671875 L 7.9375 -14.671875 L 7.9375 -6.3125 C 7.9375 -5.40625 8.125 -4.742188 8.5 -4.328125 C 8.875 -3.910156 9.421875 -3.703125 10.140625 -3.703125 C 10.960938 -3.703125 11.675781 -3.921875 12.28125 -4.359375 Z M 12.640625 -4.359375 "/></g></g><g style="fill:#000000;fill-opacity:1;"><g transform="translate(257.85335, 125.599936)"><path style="stroke:none" d="M 18.09375 -8.125 L 6.328125 -8.125 C 6.460938 -6.53125 6.914062 -5.367188 7.6875 -4.640625 C 8.457031 -3.910156 9.515625 -3.546875 10.859375 -3.546875 C 11.910156 -3.546875 12.757812 -3.742188 13.40625 -4.140625 C 14.0625 -4.535156 14.585938 -5.128906 14.984375 -5.921875 L 15.34375 -5.921875 L 18.390625 -3.96875 C 17.796875 -2.6875 16.894531 -1.644531 15.6875 -0.84375 C 14.476562 -0.0507812 12.867188 0.34375 10.859375 0.34375 C 8.960938 0.34375 7.328125 -0.015625 5.953125 -0.734375 C 4.578125 -1.453125 3.515625 -2.519531 2.765625 -3.9375 C 2.015625 -5.363281 1.640625 -7.097656 1.640625 -9.140625 C 1.640625 -11.222656 2.03125 -12.976562 2.8125 -14.40625 C 3.601562 -15.832031 4.664062 -16.894531 6 -17.59375 C 7.34375 -18.300781 8.851562 -18.65625 10.53125 -18.65625 C 13.113281 -18.65625 15.09375 -17.96875 16.46875 -16.59375 C 17.851562 -15.226562 18.546875 -13.21875 18.546875 -10.5625 C 18.546875 -9.59375 18.507812 -8.84375 18.4375 -8.3125 Z M 14.140625 -11.09375 C 14.097656 -12.488281 13.773438 -13.503906 13.171875 -14.140625 C 12.566406 -14.773438 11.6875 -15.09375 10.53125 -15.09375 C 8.207031 -15.09375 6.835938 -13.757812 6.421875 -11.09375 Z M 14.140625 -11.09375 "/></g></g><g style="fill:#000000;fill-opacity:1;"><g transform="translate(277.756341, 125.599936)"><path style="stroke:none" d="M 10.671875 0.34375 C 8.898438 0.34375 7.332031 -0.0195312 5.96875 -0.75 C 4.613281 -1.488281 3.550781 -2.570312 2.78125 -4 C 2.019531 -5.425781 1.640625 -7.140625 1.640625 -9.140625 C 1.640625 -11.160156 2.019531 -12.882812 2.78125 -14.3125 C 3.550781 -15.738281 4.609375 -16.816406 5.953125 -17.546875 C 7.304688 -18.285156 8.851562 -18.65625 10.59375 -18.65625 C 14.457031 -18.65625 16.929688 -17.253906 18.015625 -14.453125 L 14.859375 -12.203125 L 14.515625 -12.203125 C 14.140625 -13.066406 13.648438 -13.707031 13.046875 -14.125 C 12.441406 -14.550781 11.625 -14.765625 10.59375 -14.765625 C 9.257812 -14.765625 8.222656 -14.300781 7.484375 -13.375 C 6.742188 -12.457031 6.375 -11.046875 6.375 -9.140625 C 6.375 -7.265625 6.75 -5.863281 7.5 -4.9375 C 8.257812 -4.007812 9.316406 -3.546875 10.671875 -3.546875 C 11.671875 -3.546875 12.515625 -3.8125 13.203125 -4.34375 C 13.898438 -4.882812 14.394531 -5.660156 14.6875 -6.671875 L 15.046875 -6.703125 L 18.3125 -4.921875 C 17.84375 -3.367188 16.976562 -2.101562 15.71875 -1.125 C 14.46875 -0.144531 12.785156 0.34375 10.671875 0.34375 Z M 10.671875 0.34375 "/></g></g><g style="fill:#000000;fill-opacity:1;"><g transform="translate(296.630165, 125.599936)"><path style="stroke:none" d="M 12.640625 -4.359375 L 13.828125 -0.96875 C 13.328125 -0.550781 12.703125 -0.226562 11.953125 0 C 11.203125 0.226562 10.347656 0.34375 9.390625 0.34375 C 7.410156 0.34375 5.90625 -0.191406 4.875 -1.265625 C 3.851562 -2.347656 3.34375 -3.921875 3.34375 -5.984375 L 3.34375 -14.671875 L 0.546875 -14.671875 L 0.546875 -18.328125 L 3.34375 -18.328125 L 3.34375 -21.890625 L 7.9375 -22.640625 L 7.9375 -18.328125 L 13.125 -18.328125 L 13.125 -14.671875 L 7.9375 -14.671875 L 7.9375 -6.3125 C 7.9375 -5.40625 8.125 -4.742188 8.5 -4.328125 C 8.875 -3.910156 9.421875 -3.703125 10.140625 -3.703125 C 10.960938 -3.703125 11.675781 -3.921875 12.28125 -4.359375 Z M 12.640625 -4.359375 "/></g></g><g style="fill:#000000;fill-opacity:1;"><g transform="translate(310.856063, 125.599936)"><path style="stroke:none" d="M 4.9375 -20.5 C 4.101562 -20.5 3.425781 -20.75 2.90625 -21.25 C 2.382812 -21.757812 2.125 -22.410156 2.125 -23.203125 C 2.125 -23.992188 2.382812 -24.640625 2.90625 -25.140625 C 3.425781 -25.648438 4.101562 -25.90625 4.9375 -25.90625 C 5.488281 -25.90625 5.976562 -25.785156 6.40625 -25.546875 C 6.84375 -25.316406 7.175781 -25 7.40625 -24.59375 C 7.644531 -24.1875 7.765625 -23.722656 7.765625 -23.203125 C 7.765625 -22.679688 7.644531 -22.21875 7.40625 -21.8125 C 7.175781 -21.40625 6.84375 -21.082031 6.40625 -20.84375 C 5.976562 -20.613281 5.488281 -20.5 4.9375 -20.5 Z M 2.640625 0 L 2.640625 -18.3125 L 7.234375 -18.3125 L 7.234375 0 Z M 2.640625 0 "/></g></g><g style="fill:#000000;fill-opacity:1;"><g transform="translate(320.716269, 125.599936)"><path style="stroke:none" d="M 10.640625 0.34375 C 8.847656 0.34375 7.273438 -0.0195312 5.921875 -0.75 C 4.566406 -1.488281 3.515625 -2.566406 2.765625 -3.984375 C 2.015625 -5.410156 1.640625 -7.128906 1.640625 -9.140625 C 1.640625 -11.160156 2.015625 -12.882812 2.765625 -14.3125 C 3.515625 -15.738281 4.566406 -16.816406 5.921875 -17.546875 C 7.273438 -18.285156 8.847656 -18.65625 10.640625 -18.65625 C 12.429688 -18.65625 14.003906 -18.285156 15.359375 -17.546875 C 16.722656 -16.816406 17.78125 -15.738281 18.53125 -14.3125 C 19.28125 -12.882812 19.65625 -11.160156 19.65625 -9.140625 C 19.65625 -7.128906 19.28125 -5.410156 18.53125 -3.984375 C 17.78125 -2.566406 16.722656 -1.488281 15.359375 -0.75 C 14.003906 -0.0195312 12.429688 0.34375 10.640625 0.34375 Z M 10.640625 -3.546875 C 13.484375 -3.546875 14.90625 -5.410156 14.90625 -9.140625 C 14.90625 -11.078125 14.539062 -12.5 13.8125 -13.40625 C 13.082031 -14.3125 12.023438 -14.765625 10.640625 -14.765625 C 7.796875 -14.765625 6.375 -12.890625 6.375 -9.140625 C 6.375 -5.410156 7.796875 -3.546875 10.640625 -3.546875 Z M 10.640625 -3.546875 "/></g></g><g style="fill:#000000;fill-opacity:1;"><g transform="translate(341.997015, 125.599936)"><path style="stroke:none" d="M 2.640625 0 L 2.640625 -18.3125 L 7.0625 -18.3125 L 7.0625 -15.625 L 7.40625 -15.546875 C 8.539062 -17.617188 10.390625 -18.65625 12.953125 -18.65625 C 15.066406 -18.65625 16.617188 -18.078125 17.609375 -16.921875 C 18.597656 -15.773438 19.09375 -14.101562 19.09375 -11.90625 L 19.09375 0 L 14.5 0 L 14.5 -11.34375 C 14.5 -12.5625 14.253906 -13.4375 13.765625 -13.96875 C 13.273438 -14.507812 12.492188 -14.78125 11.421875 -14.78125 C 10.109375 -14.78125 9.082031 -14.351562 8.34375 -13.5 C 7.601562 -12.644531 7.234375 -11.304688 7.234375 -9.484375 L 7.234375 0 Z M 2.640625 0 "/></g></g></g></svg>