<svg xmlns="http://www.w3.org/2000/svg" xmlns:xlink="http://www.w3.org/1999/xlink" width="1920" zoomAndPan="magnify" viewBox="0 0 1440 809.999993" height="1080" preserveAspectRatio="xMidYMid meet" version="1.2"><defs><clipPath id="61d1ad4643"><path d="M 555 285.570312 L 885 285.570312 L 885 524 L 555 524 Z M 555 285.570312 "/></clipPath></defs><g id="db12281088"><g style="fill:#000000;fill-opacity:1;"><g transform="translate(113.44922, 125.600169)"><path style="stroke:none" d="M 7.546875 0 L 3.15625 0 L 3.15625 -24.265625 L 9.4375 -24.265625 L 15.578125 -6.421875 L 15.921875 -6.421875 L 22.03125 -24.265625 L 28.15625 -24.265625 L 28.15625 0 L 23.609375 0 L 23.609375 -16.03125 L 23.1875 -16.109375 L 17.578125 0 L 13.578125 0 L 7.96875 -16.109375 L 7.546875 -16.03125 Z M 7.546875 0 "/></g></g><g style="fill:#000000;fill-opacity:1;"><g transform="translate(144.772773, 125.600169)"><path style="stroke:none" d="M 10.640625 0.34375 C 8.847656 0.34375 7.273438 -0.0195312 5.921875 -0.75 C 4.566406 -1.488281 3.515625 -2.566406 2.765625 -3.984375 C 2.015625 -5.410156 1.640625 -7.128906 1.640625 -9.140625 C 1.640625 -11.160156 2.015625 -12.882812 2.765625 -14.3125 C 3.515625 -15.738281 4.566406 -16.816406 5.921875 -17.546875 C 7.273438 -18.285156 8.847656 -18.65625 10.640625 -18.65625 C 12.429688 -18.65625 14.003906 -18.285156 15.359375 -17.546875 C 16.722656 -16.816406 17.78125 -15.738281 18.53125 -14.3125 C 19.28125 -12.882812 19.65625 -11.160156 19.65625 -9.140625 C 19.65625 -7.128906 19.28125 -5.410156 18.53125 -3.984375 C 17.78125 -2.566406 16.722656 -1.488281 15.359375 -0.75 C 14.003906 -0.0195312 12.429688 0.34375 10.640625 0.34375 Z M 10.640625 -3.546875 C 13.484375 -3.546875 14.90625 -5.410156 14.90625 -9.140625 C 14.90625 -11.078125 14.539062 -12.5 13.8125 -13.40625 C 13.082031 -14.3125 12.023438 -14.765625 10.640625 -14.765625 C 7.796875 -14.765625 6.375 -12.890625 6.375 -9.140625 C 6.375 -5.410156 7.796875 -3.546875 10.640625 -3.546875 Z M 10.640625 -3.546875 "/></g></g><g style="fill:#000000;fill-opacity:1;"><g transform="translate(166.05353, 125.600169)"><path style="stroke:none" d="M 12.796875 0.34375 C 10.460938 0.34375 8.726562 -0.53125 7.59375 -2.28125 L 7.234375 -2.203125 L 7.234375 0 L 2.640625 0 L 2.640625 -25.671875 L 7.234375 -25.671875 L 7.234375 -16.15625 L 7.59375 -16.09375 C 8.21875 -16.96875 8.957031 -17.613281 9.8125 -18.03125 C 10.675781 -18.445312 11.707031 -18.65625 12.90625 -18.65625 C 14.382812 -18.65625 15.675781 -18.304688 16.78125 -17.609375 C 17.882812 -16.910156 18.742188 -15.847656 19.359375 -14.421875 C 19.984375 -13.003906 20.296875 -11.242188 20.296875 -9.140625 C 20.296875 -7.066406 19.972656 -5.316406 19.328125 -3.890625 C 18.691406 -2.472656 17.804688 -1.410156 16.671875 -0.703125 C 15.546875 -0.00390625 14.253906 0.34375 12.796875 0.34375 Z M 11.40625 -3.546875 C 12.757812 -3.546875 13.789062 -4 14.5 -4.90625 C 15.207031 -5.8125 15.5625 -7.222656 15.5625 -9.140625 C 15.5625 -11.078125 15.207031 -12.5 14.5 -13.40625 C 13.789062 -14.3125 12.757812 -14.765625 11.40625 -14.765625 C 10.113281 -14.765625 9.085938 -14.296875 8.328125 -13.359375 C 7.566406 -12.429688 7.1875 -11.023438 7.1875 -9.140625 C 7.1875 -7.265625 7.566406 -5.863281 8.328125 -4.9375 C 9.085938 -4.007812 10.113281 -3.546875 11.40625 -3.546875 Z M 11.40625 -3.546875 "/></g></g><g style="fill:#000000;fill-opacity:1;"><g transform="translate(187.981679, 125.600169)"><path style="stroke:none" d="M 4.9375 -20.5 C 4.101562 -20.5 3.425781 -20.75 2.90625 -21.25 C 2.382812 -21.757812 2.125 -22.410156 2.125 -23.203125 C 2.125 -23.992188 2.382812 -24.640625 2.90625 -25.140625 C 3.425781 -25.648438 4.101562 -25.90625 4.9375 -25.90625 C 5.488281 -25.90625 5.976562 -25.785156 6.40625 -25.546875 C 6.84375 -25.316406 7.175781 -25 7.40625 -24.59375 C 7.644531 -24.1875 7.765625 -23.722656 7.765625 -23.203125 C 7.765625 -22.679688 7.644531 -22.21875 7.40625 -21.8125 C 7.175781 -21.40625 6.84375 -21.082031 6.40625 -20.84375 C 5.976562 -20.613281 5.488281 -20.5 4.9375 -20.5 Z M 2.640625 0 L 2.640625 -18.3125 L 7.234375 -18.3125 L 7.234375 0 Z M 2.640625 0 "/></g></g><g style="fill:#000000;fill-opacity:1;"><g transform="translate(197.841874, 125.600169)"><path style="stroke:none" d="M 7.609375 0.34375 C 5.953125 0.34375 4.691406 -0.0976562 3.828125 -0.984375 C 2.960938 -1.878906 2.53125 -3.234375 2.53125 -5.046875 L 2.53125 -25.671875 L 7.125 -25.671875 L 7.125 -5.234375 C 7.125 -4.109375 7.585938 -3.546875 8.515625 -3.546875 C 8.785156 -3.546875 9.066406 -3.59375 9.359375 -3.6875 L 9.59375 -3.625 L 10.015625 -0.078125 C 9.753906 0.046875 9.414062 0.144531 9 0.21875 C 8.582031 0.300781 8.117188 0.34375 7.609375 0.34375 Z M 7.609375 0.34375 "/></g></g><g style="fill:#000000;fill-opacity:1;"><g transform="translate(208.366055, 125.600169)"><path style="stroke:none" d="M 18.09375 -8.125 L 6.328125 -8.125 C 6.460938 -6.53125 6.914062 -5.367188 7.6875 -4.640625 C 8.457031 -3.910156 9.515625 -3.546875 10.859375 -3.546875 C 11.910156 -3.546875 12.757812 -3.742188 13.40625 -4.140625 C 14.0625 -4.535156 14.585938 -5.128906 14.984375 -5.921875 L 15.34375 -5.921875 L 18.390625 -3.96875 C 17.796875 -2.6875 16.894531 -1.644531 15.6875 -0.84375 C 14.476562 -0.0507812 12.867188 0.34375 10.859375 0.34375 C 8.960938 0.34375 7.328125 -0.015625 5.953125 -0.734375 C 4.578125 -1.453125 3.515625 -2.519531 2.765625 -3.9375 C 2.015625 -5.363281 1.640625 -7.097656 1.640625 -9.140625 C 1.640625 -11.222656 2.03125 -12.976562 2.8125 -14.40625 C 3.601562 -15.832031 4.664062 -16.894531 6 -17.59375 C 7.34375 -18.300781 8.851562 -18.65625 10.53125 -18.65625 C 13.113281 -18.65625 15.09375 -17.96875 16.46875 -16.59375 C 17.851562 -15.226562 18.546875 -13.21875 18.546875 -10.5625 C 18.546875 -9.59375 18.507812 -8.84375 18.4375 -8.3125 Z M 14.140625 -11.09375 C 14.097656 -12.488281 13.773438 -13.503906 13.171875 -14.140625 C 12.566406 -14.773438 11.6875 -15.09375 10.53125 -15.09375 C 8.207031 -15.09375 6.835938 -13.757812 6.421875 -11.09375 Z M 14.140625 -11.09375 "/></g></g><g style="fill:#000000;fill-opacity:1;"><g transform="translate(228.269046, 125.600169)"><path style="stroke:none" d=""/></g></g><g style="fill:#000000;fill-opacity:1;"><g transform="translate(236.286685, 125.600169)"><path style="stroke:none" d="M 12.53125 -24.265625 C 14.269531 -24.265625 15.753906 -23.945312 16.984375 -23.3125 C 18.222656 -22.675781 19.15625 -21.785156 19.78125 -20.640625 C 20.414062 -19.492188 20.734375 -18.164062 20.734375 -16.65625 C 20.734375 -15.132812 20.414062 -13.800781 19.78125 -12.65625 C 19.15625 -11.519531 18.222656 -10.632812 16.984375 -10 C 15.753906 -9.363281 14.269531 -9.046875 12.53125 -9.046875 L 7.953125 -9.046875 L 7.953125 0 L 3.15625 0 L 3.15625 -24.265625 Z M 11.90625 -12.84375 C 14.570312 -12.84375 15.90625 -14.113281 15.90625 -16.65625 C 15.90625 -19.195312 14.570312 -20.46875 11.90625 -20.46875 L 7.953125 -20.46875 L 7.953125 -12.84375 Z M 11.90625 -12.84375 "/></g></g><g style="fill:#000000;fill-opacity:1;"><g transform="translate(257.567407, 125.600169)"><path style="stroke:none" d="M 7.140625 0.34375 C 5.960938 0.34375 4.941406 0.128906 4.078125 -0.296875 C 3.222656 -0.734375 2.5625 -1.367188 2.09375 -2.203125 C 1.625 -3.035156 1.390625 -4.039062 1.390625 -5.21875 C 1.390625 -6.300781 1.625 -7.207031 2.09375 -7.9375 C 2.5625 -8.675781 3.28125 -9.28125 4.25 -9.75 C 5.226562 -10.21875 6.5 -10.582031 8.0625 -10.84375 C 9.164062 -11.019531 10 -11.210938 10.5625 -11.421875 C 11.132812 -11.628906 11.519531 -11.863281 11.71875 -12.125 C 11.914062 -12.394531 12.015625 -12.738281 12.015625 -13.15625 C 12.015625 -13.738281 11.8125 -14.179688 11.40625 -14.484375 C 11 -14.796875 10.316406 -14.953125 9.359375 -14.953125 C 8.347656 -14.953125 7.378906 -14.722656 6.453125 -14.265625 C 5.535156 -13.816406 4.738281 -13.222656 4.0625 -12.484375 L 3.734375 -12.484375 L 1.8125 -15.390625 C 2.738281 -16.421875 3.867188 -17.222656 5.203125 -17.796875 C 6.546875 -18.367188 8.007812 -18.65625 9.59375 -18.65625 C 12.019531 -18.65625 13.773438 -18.140625 14.859375 -17.109375 C 15.941406 -16.085938 16.484375 -14.628906 16.484375 -12.734375 L 16.484375 -4.78125 C 16.484375 -3.957031 16.84375 -3.546875 17.5625 -3.546875 C 17.84375 -3.546875 18.113281 -3.597656 18.375 -3.703125 L 18.609375 -3.640625 L 18.9375 -0.4375 C 18.6875 -0.269531 18.332031 -0.128906 17.875 -0.015625 C 17.425781 0.0859375 16.929688 0.140625 16.390625 0.140625 C 15.296875 0.140625 14.441406 -0.0664062 13.828125 -0.484375 C 13.210938 -0.910156 12.769531 -1.570312 12.5 -2.46875 L 12.15625 -2.5 C 11.257812 -0.601562 9.585938 0.34375 7.140625 0.34375 Z M 8.59375 -3.09375 C 9.65625 -3.09375 10.503906 -3.445312 11.140625 -4.15625 C 11.785156 -4.875 12.109375 -5.867188 12.109375 -7.140625 L 12.109375 -9 L 11.78125 -9.0625 C 11.507812 -8.84375 11.148438 -8.65625 10.703125 -8.5 C 10.253906 -8.351562 9.609375 -8.207031 8.765625 -8.0625 C 7.765625 -7.894531 7.046875 -7.609375 6.609375 -7.203125 C 6.171875 -6.804688 5.953125 -6.238281 5.953125 -5.5 C 5.953125 -4.707031 6.1875 -4.109375 6.65625 -3.703125 C 7.125 -3.296875 7.769531 -3.09375 8.59375 -3.09375 Z M 8.59375 -3.09375 "/></g></g><g style="fill:#000000;fill-opacity:1;"><g transform="translate(276.65701, 125.600169)"><path style="stroke:none" d="M 12.640625 -4.359375 L 13.828125 -0.96875 C 13.328125 -0.550781 12.703125 -0.226562 11.953125 0 C 11.203125 0.226562 10.347656 0.34375 9.390625 0.34375 C 7.410156 0.34375 5.90625 -0.191406 4.875 -1.265625 C 3.851562 -2.347656 3.34375 -3.921875 3.34375 -5.984375 L 3.34375 -14.671875 L 0.546875 -14.671875 L 0.546875 -18.328125 L 3.34375 -18.328125 L 3.34375 -21.890625 L 7.9375 -22.640625 L 7.9375 -18.328125 L 13.125 -18.328125 L 13.125 -14.671875 L 7.9375 -14.671875 L 7.9375 -6.3125 C 7.9375 -5.40625 8.125 -4.742188 8.5 -4.328125 C 8.875 -3.910156 9.421875 -3.703125 10.140625 -3.703125 C 10.960938 -3.703125 11.675781 -3.921875 12.28125 -4.359375 Z M 12.640625 -4.359375 "/></g></g><g style="fill:#000000;fill-opacity:1;"><g transform="translate(290.882919, 125.600169)"><path style="stroke:none" d="M 2.640625 0 L 2.640625 -18.3125 L 7.109375 -18.3125 L 7.109375 -15.59375 L 7.453125 -15.515625 C 7.898438 -16.535156 8.484375 -17.285156 9.203125 -17.765625 C 9.921875 -18.242188 10.796875 -18.484375 11.828125 -18.484375 C 12.859375 -18.484375 13.644531 -18.304688 14.1875 -17.953125 L 13.421875 -13.984375 L 13.0625 -13.90625 C 12.769531 -14.03125 12.484375 -14.117188 12.203125 -14.171875 C 11.921875 -14.234375 11.582031 -14.265625 11.1875 -14.265625 C 9.90625 -14.265625 8.925781 -13.8125 8.25 -12.90625 C 7.570312 -12.007812 7.234375 -10.5625 7.234375 -8.5625 L 7.234375 0 Z M 2.640625 0 "/></g></g><g style="fill:#000000;fill-opacity:1;"><g transform="translate(304.760219, 125.600169)"><path style="stroke:none" d="M 10.640625 0.34375 C 8.847656 0.34375 7.273438 -0.0195312 5.921875 -0.75 C 4.566406 -1.488281 3.515625 -2.566406 2.765625 -3.984375 C 2.015625 -5.410156 1.640625 -7.128906 1.640625 -9.140625 C 1.640625 -11.160156 2.015625 -12.882812 2.765625 -14.3125 C 3.515625 -15.738281 4.566406 -16.816406 5.921875 -17.546875 C 7.273438 -18.285156 8.847656 -18.65625 10.640625 -18.65625 C 12.429688 -18.65625 14.003906 -18.285156 15.359375 -17.546875 C 16.722656 -16.816406 17.78125 -15.738281 18.53125 -14.3125 C 19.28125 -12.882812 19.65625 -11.160156 19.65625 -9.140625 C 19.65625 -7.128906 19.28125 -5.410156 18.53125 -3.984375 C 17.78125 -2.566406 16.722656 -1.488281 15.359375 -0.75 C 14.003906 -0.0195312 12.429688 0.34375 10.640625 0.34375 Z M 10.640625 -3.546875 C 13.484375 -3.546875 14.90625 -5.410156 14.90625 -9.140625 C 14.90625 -11.078125 14.539062 -12.5 13.8125 -13.40625 C 13.082031 -14.3125 12.023438 -14.765625 10.640625 -14.765625 C 7.796875 -14.765625 6.375 -12.890625 6.375 -9.140625 C 6.375 -5.410156 7.796875 -3.546875 10.640625 -3.546875 Z M 10.640625 -3.546875 "/></g></g><g style="fill:#000000;fill-opacity:1;"><g transform="translate(326.040976, 125.600169)"><path style="stroke:none" d="M 7.609375 0.34375 C 5.953125 0.34375 4.691406 -0.0976562 3.828125 -0.984375 C 2.960938 -1.878906 2.53125 -3.234375 2.53125 -5.046875 L 2.53125 -25.671875 L 7.125 -25.671875 L 7.125 -5.234375 C 7.125 -4.109375 7.585938 -3.546875 8.515625 -3.546875 C 8.785156 -3.546875 9.066406 -3.59375 9.359375 -3.6875 L 9.59375 -3.625 L 10.015625 -0.078125 C 9.753906 0.046875 9.414062 0.144531 9 0.21875 C 8.582031 0.300781 8.117188 0.34375 7.609375 0.34375 Z M 7.609375 0.34375 "/></g></g><g clip-rule="nonzero" clip-path="url(#61d1ad4643)"><path style=" stroke:none;fill-rule:nonzero;fill:#000000;fill-opacity:1;" d="M 567.578125 377.203125 C 570.6875 377.953125 573.839844 378.453125 577.015625 378.742188 C 576.875 378.835938 576.746094 378.945312 576.585938 379.019531 C 569.800781 383.566406 572.066406 406.421875 573.316406 415.921875 C 573.914062 422.867188 574.566406 429.644531 575.207031 436.421875 C 575.859375 443.1875 576.523438 449.941406 577.109375 456.867188 C 577.429688 460.582031 577.761719 464.351562 578.46875 468.105469 C 578.242188 468.734375 577.945312 469.535156 577.945312 470.507812 C 577.878906 484.59375 578.039062 498.871094 578.445312 512.917969 C 578.511719 515.113281 578.628906 519.191406 581.738281 521.5625 C 583.820312 523.152344 586.363281 523.226562 588.0625 523.269531 L 604.613281 523.8125 C 605.253906 523.835938 606.003906 523.855469 606.847656 523.855469 C 610.898438 523.855469 616.644531 523.289062 619.273438 519.011719 C 620.449219 517.101562 620.492188 514.675781 620.523438 512.53125 C 620.546875 511.828125 620.546875 511.144531 620.632812 510.578125 C 620.929688 508.09375 621.398438 505.640625 621.945312 503.195312 C 626.164062 503.738281 630.730469 504.007812 635.738281 504.007812 C 649.320312 504.015625 662.890625 504.015625 676.492188 504.015625 L 724.597656 504.015625 C 750.09375 504.007812 775.585938 504.007812 801.105469 504.007812 L 804.457031 504.007812 C 809.449219 504.007812 814.011719 503.738281 818.253906 503.195312 C 818.796875 505.640625 819.246094 508.09375 819.566406 510.578125 C 819.632812 511.144531 819.652344 511.828125 819.652344 512.53125 C 819.683594 514.675781 819.726562 517.101562 820.902344 519.011719 C 823.53125 523.289062 829.3125 523.855469 833.332031 523.855469 C 834.175781 523.855469 834.945312 523.835938 835.59375 523.8125 L 852.113281 523.269531 C 853.8125 523.226562 856.378906 523.152344 858.460938 521.5625 C 861.570312 519.191406 861.679688 515.113281 861.753906 512.917969 C 862.136719 498.871094 862.296875 484.59375 862.246094 470.507812 C 862.246094 469.535156 861.933594 468.714844 861.710938 468.105469 C 862.414062 464.351562 862.769531 460.582031 863.089844 456.867188 C 863.675781 449.964844 864.316406 443.210938 864.96875 436.464844 C 865.609375 429.667969 866.285156 422.867188 866.839844 416.070312 C 868.132812 406.421875 870.375 383.566406 863.589844 379.019531 C 863.453125 378.945312 863.3125 378.835938 863.175781 378.742188 C 866.335938 378.453125 869.511719 377.953125 872.597656 377.203125 C 876.039062 376.382812 880.824219 374.78125 883.089844 370.652344 C 885.226562 366.691406 884.277344 361.324219 880.761719 357.589844 C 876.925781 353.503906 870.804688 351.601562 862.050781 351.785156 C 858.824219 351.839844 855.492188 352.222656 852.96875 354.464844 C 851.121094 356.085938 850.234375 358.285156 849.6875 360.355469 C 842.679688 343.929688 829.675781 316.429688 818.980469 310.3125 C 814.171875 307.570312 808.519531 305.511719 803.082031 303.984375 L 816.640625 303.398438 C 817.410156 303.355469 818.113281 303.035156 818.617188 302.46875 C 819.152344 301.90625 819.386719 301.15625 819.34375 300.410156 C 819.320312 299.921875 819.320312 299.257812 819.320312 298.488281 C 819.363281 294.136719 819.40625 288.179688 815.796875 286.207031 C 814.523438 285.480469 813.1875 285.492188 812.332031 285.523438 C 807.730469 285.578125 803.101562 285.714844 798.496094 285.867188 C 791.488281 286.078125 784.253906 286.304688 777.160156 286.226562 L 735.101562 285.800781 C 725.144531 285.707031 715.035156 285.707031 705.097656 285.800781 L 663.039062 286.226562 C 655.925781 286.304688 648.691406 286.078125 641.703125 285.867188 C 637.074219 285.714844 632.46875 285.578125 627.863281 285.523438 C 627 285.492188 625.683594 285.480469 624.390625 286.207031 C 620.792969 288.179688 620.835938 294.136719 620.855469 298.488281 C 620.855469 299.257812 620.875 299.921875 620.835938 300.410156 C 620.792969 301.15625 621.058594 301.90625 621.5625 302.46875 C 622.0625 303.035156 622.769531 303.355469 623.539062 303.398438 L 637.097656 303.984375 C 631.65625 305.511719 626.027344 307.570312 621.21875 310.3125 C 610.511719 316.429688 597.519531 343.929688 590.507812 360.355469 C 589.964844 358.285156 589.054688 356.085938 587.230469 354.464844 C 584.707031 352.222656 581.351562 351.839844 578.125 351.785156 C 569.375 351.601562 563.273438 353.503906 559.414062 357.589844 C 555.921875 361.324219 554.96875 366.691406 557.109375 370.652344 C 559.351562 374.78125 564.160156 376.382812 567.578125 377.203125 "/><path style=" stroke:none;fill-rule:nonzero;fill:#000000;fill-opacity:1;" d="M 588.40625 365.316406 C 588.265625 365.261719 588.125 365.175781 587.964844 365.082031 C 587.519531 364.78125 587.230469 364.335938 587.132812 363.8125 C 586.609375 361.144531 586.066406 358.828125 584.546875 357.472656 C 582.988281 356.097656 580.507812 355.859375 578.039062 355.820312 C 570.484375 355.636719 565.398438 357.132812 562.363281 360.355469 C 560.398438 362.457031 559.167969 366.011719 560.664062 368.730469 C 562.140625 371.453125 565.859375 372.625 568.53125 373.277344 C 572.976562 374.367188 577.539062 374.910156 582.078125 374.984375 C 583.90625 373.511719 585.230469 372.304688 585.863281 371.71875 C 586.320312 370.472656 587.21875 368.230469 588.40625 365.316406 Z M 596.75 415.175781 C 595.554688 415.175781 594.367188 415.164062 593.191406 415.164062 C 589.355469 419.796875 587.25 425.910156 587.410156 431.949219 C 589.417969 432.269531 591.375 432.558594 593.332031 432.835938 C 593.332031 426.816406 594.503906 420.765625 596.75 415.175781 Z M 592.285156 411.109375 C 596.972656 411.140625 601.695312 411.203125 606.453125 411.269531 C 600.179688 401.035156 593.191406 388.785156 595.90625 376.925781 L 589.011719 376.480469 C 587.335938 378.015625 584.066406 380.855469 579.738281 383.746094 C 577.292969 385.359375 576.929688 400.105469 578.949219 415.300781 C 579.492188 421.671875 580.082031 427.789062 580.667969 433.902344 C 581.535156 433.335938 582.464844 432.859375 583.4375 432.472656 C 583.117188 425.003906 585.777344 417.363281 590.753906 411.792969 C 591.128906 411.34375 591.695312 411.109375 592.261719 411.109375 C 592.261719 411.109375 592.261719 411.109375 592.285156 411.109375 Z M 609.015625 415.34375 C 605.9375 415.28125 602.851562 415.238281 599.785156 415.21875 C 597.359375 420.875 596.085938 427.085938 596.140625 433.242188 L 596.140625 433.261719 C 600.96875 433.925781 605.683594 434.46875 610.308594 434.917969 C 609.132812 428.460938 608.695312 421.875 609.015625 415.34375 Z M 615.011719 509.875 C 615.34375 507.335938 615.800781 504.785156 616.347656 502.265625 C 611.964844 501.378906 607.90625 500.164062 604.144531 498.574219 C 595.316406 494.816406 588.148438 488.808594 583.640625 481.648438 C 583.683594 492.011719 583.800781 502.449219 584.097656 512.777344 C 584.140625 514.539062 584.300781 516.429688 585.15625 517.078125 C 585.796875 517.558594 587.21875 517.601562 588.246094 517.625 L 604.785156 518.167969 C 607.253906 518.242188 613.011719 518.433594 614.464844 516.042969 C 614.828125 515.457031 614.851562 513.652344 614.871094 512.4375 C 614.894531 511.53125 614.914062 510.675781 615.011719 509.875 Z M 627.136719 386.105469 L 633.035156 386.148438 C 624.265625 381.164062 615.160156 376.660156 605.84375 372.742188 C 605.757812 372.722656 605.660156 372.703125 605.597656 372.703125 C 604.433594 373.332031 603.171875 374.003906 601.898438 374.664062 C 601.375 374.941406 600.851562 375.230469 600.328125 375.507812 C 602.027344 379.445312 605.917969 382.734375 611.015625 384.386719 C 616.164062 386.0625 621.742188 386.082031 627.136719 386.105469 Z M 640.3125 436.207031 L 637.03125 416.070312 C 637.011719 415.964844 637.03125 415.890625 637.03125 415.78125 C 632.148438 415.730469 627.277344 415.644531 622.46875 415.558594 C 618.976562 415.503906 615.417969 415.441406 611.835938 415.378906 C 611.515625 422.003906 611.964844 428.664062 613.214844 435.195312 C 622.609375 436.003906 631.625 436.347656 640.3125 436.207031 Z M 651.042969 298.894531 L 651.136719 291.777344 C 647.898438 291.714844 644.695312 291.605469 641.519531 291.511719 C 636.9375 291.371094 632.34375 291.234375 627.78125 291.167969 C 627.640625 291.167969 627.375 291.167969 627.191406 291.167969 C 626.550781 292.300781 626.507812 296.015625 626.507812 297.871094 L 643.316406 298.597656 C 645.878906 298.691406 648.464844 298.800781 651.042969 298.894531 Z M 654.171875 412.558594 C 654.632812 412.496094 655.089844 412.453125 655.539062 412.398438 C 655.496094 407.511719 653.261719 402.261719 649.257812 397.84375 C 645.988281 394.214844 641.882812 391.386719 637.941406 388.984375 L 627.136719 388.953125 C 621.519531 388.910156 615.707031 388.890625 610.148438 387.074219 C 604.976562 385.402344 600.832031 382.167969 598.523438 378.21875 C 596.363281 389.316406 603.417969 400.9375 609.796875 411.300781 C 614.058594 411.386719 618.34375 411.449219 622.554688 411.523438 C 632.492188 411.695312 642.75 411.878906 652.75 411.929688 C 653.316406 411.929688 653.808594 412.175781 654.171875 412.558594 Z M 656.609375 435.332031 C 656.652344 435.332031 656.714844 435.332031 656.757812 435.332031 C 655.945312 433.519531 655.402344 431.664062 654.910156 430.007812 C 654.191406 427.488281 653.5 424.800781 652.859375 422.1875 C 652.324219 420.125 651.789062 417.980469 651.222656 415.941406 C 647.460938 415.921875 643.65625 415.890625 639.863281 415.824219 L 643.15625 436.101562 C 647.71875 435.984375 652.207031 435.738281 656.609375 435.332031 Z M 672.976562 291.777344 L 663.09375 291.875 C 660.070312 291.917969 657.015625 291.894531 653.96875 291.832031 L 653.863281 299.011719 C 656.671875 299.140625 659.480469 299.257812 662.292969 299.363281 C 665.476562 299.460938 668.648438 299.558594 671.824219 299.683594 C 671.664062 298.074219 671.929688 296.496094 672.207031 295.222656 C 672.316406 294.796875 672.410156 294.371094 672.507812 293.953125 C 672.6875 293.207031 672.847656 292.503906 672.976562 291.777344 Z M 689.359375 291.605469 L 675.832031 291.757812 C 675.679688 292.738281 675.476562 293.6875 675.253906 294.617188 C 675.15625 295.023438 675.0625 295.425781 674.976562 295.832031 C 674.699219 297.058594 674.496094 298.449219 674.707031 299.761719 C 679.558594 299.921875 684.410156 300.046875 689.21875 300.144531 C 688.652344 297.328125 688.71875 294.414062 689.359375 291.605469 Z M 692.050781 300.207031 C 697.640625 300.324219 703.195312 300.390625 708.71875 300.367188 C 708.699219 300.070312 708.699219 299.738281 708.675781 299.460938 C 708.453125 296.804688 708.453125 294.09375 708.613281 291.4375 C 707.457031 291.4375 706.292969 291.4375 705.140625 291.445312 L 692.253906 291.574219 C 691.527344 294.339844 691.441406 297.242188 692.050781 300.027344 C 692.070312 300.089844 692.050781 300.144531 692.050781 300.207031 Z M 728.699219 299.214844 C 728.914062 296.632812 728.902344 294.007812 728.734375 291.402344 C 722.972656 291.394531 717.226562 291.394531 711.445312 291.402344 C 711.285156 294.007812 711.285156 296.632812 711.488281 299.214844 C 711.519531 299.558594 711.519531 299.941406 711.539062 300.324219 C 715.503906 300.28125 719.46875 300.273438 723.378906 300.144531 C 725.144531 300.164062 726.894531 300.144531 728.679688 300.164062 C 728.679688 299.84375 728.679688 299.523438 728.699219 299.214844 Z M 748.125 300.027344 C 748.757812 297.242188 748.660156 294.339844 747.921875 291.574219 L 735.039062 291.445312 C 733.882812 291.4375 732.71875 291.4375 731.566406 291.4375 C 731.726562 294.09375 731.746094 296.804688 731.523438 299.441406 C 731.5 299.683594 731.5 299.921875 731.480469 300.164062 C 737.046875 300.164062 742.589844 300.121094 748.125 300.070312 C 748.125 300.046875 748.125 300.046875 748.125 300.027344 Z M 765.488281 299.71875 C 765.703125 298.4375 765.488281 297.039062 765.222656 295.832031 C 765.125 295.425781 765.042969 295.042969 764.945312 294.636719 C 764.722656 293.710938 764.519531 292.738281 764.378906 291.757812 L 750.839844 291.605469 C 751.472656 294.371094 751.523438 297.242188 751 300.027344 C 755.832031 299.960938 760.683594 299.867188 765.488281 299.71875 Z M 772.980469 429.039062 C 775.0625 424.480469 776.152344 419.441406 776.21875 414.417969 C 757.691406 412.742188 739 412.15625 720.453125 412.65625 C 720.429688 412.65625 720.410156 412.675781 720.386719 412.675781 C 720.292969 412.675781 720.183594 412.675781 720.089844 412.65625 C 719.992188 412.675781 719.90625 412.675781 719.8125 412.675781 C 719.789062 412.675781 719.769531 412.65625 719.726562 412.65625 C 701.175781 412.15625 682.488281 412.742188 663.96875 414.417969 C 664.023438 419.441406 665.136719 424.480469 667.21875 429.039062 C 667.882812 430.550781 668.777344 432.207031 670.1875 433.113281 C 671.621094 434.042969 673.542969 434.191406 675.703125 434.246094 C 683.4375 434.46875 691.28125 434.425781 698.996094 434.105469 C 705.417969 433.859375 712.714844 433.5625 720.089844 433.765625 C 727.484375 433.5625 734.757812 433.859375 741.179688 434.105469 C 748.917969 434.425781 756.761719 434.46875 764.476562 434.246094 C 766.65625 434.191406 768.558594 434.042969 770.011719 433.113281 C 771.410156 432.207031 772.296875 430.550781 772.980469 429.039062 Z M 784.980469 415.28125 C 783.003906 415.058594 781.027344 414.855469 779.039062 414.671875 C 778.941406 420.019531 777.746094 425.355469 775.542969 430.210938 C 774.699219 432.089844 773.566406 434.171875 771.546875 435.484375 C 769.484375 436.828125 767.082031 437 764.582031 437.074219 C 761.300781 437.179688 758.03125 437.210938 754.761719 437.210938 C 750.1875 437.210938 745.605469 437.117188 741.085938 436.933594 C 734.675781 436.667969 727.441406 436.390625 720.132812 436.59375 C 720.132812 436.59375 720.109375 436.570312 720.089844 436.570312 C 720.066406 436.570312 720.066406 436.59375 720.046875 436.59375 C 712.757812 436.390625 705.503906 436.667969 699.125 436.933594 C 694.574219 437.117188 690.011719 437.210938 685.425781 437.210938 C 682.144531 437.210938 678.875 437.179688 675.617188 437.074219 C 673.117188 437 670.691406 436.828125 668.628906 435.484375 C 666.628906 434.171875 665.476562 432.089844 664.632812 430.210938 C 662.429688 425.355469 661.234375 420 661.136719 414.671875 C 659.160156 414.855469 657.175781 415.058594 655.21875 415.28125 C 655.742188 417.234375 656.265625 419.242188 656.769531 421.195312 C 657.421875 423.777344 658.082031 426.445312 658.808594 428.878906 C 659.644531 431.789062 660.691406 435.398438 663.074219 437.476562 C 666.042969 440.039062 670.59375 440.082031 675.359375 439.878906 C 684.976562 439.472656 694.316406 439.335938 703.324219 439.21875 C 708.472656 439.132812 713.6875 439.046875 719 438.929688 C 719.117188 438.910156 719.203125 438.867188 719.320312 438.886719 C 719.585938 438.886719 719.832031 438.886719 720.089844 438.886719 C 720.355469 438.886719 720.613281 438.886719 720.878906 438.886719 C 720.976562 438.867188 721.082031 438.910156 721.179688 438.929688 C 726.5 439.046875 731.703125 439.132812 736.855469 439.21875 C 745.894531 439.335938 755.199219 439.472656 764.839844 439.878906 C 769.605469 440.082031 774.132812 440.039062 777.105469 437.476562 C 779.488281 435.398438 780.535156 431.789062 781.390625 428.878906 C 782.09375 426.445312 782.757812 423.777344 783.429688 421.195312 C 783.933594 419.242188 784.433594 417.234375 784.980469 415.28125 Z M 786.335938 299.011719 L 786.207031 291.820312 C 783.183594 291.875 780.128906 291.917969 777.105469 291.875 L 767.222656 291.777344 C 767.347656 292.503906 767.507812 293.230469 767.691406 293.976562 C 767.789062 294.371094 767.894531 294.796875 767.96875 295.222656 C 768.257812 296.472656 768.515625 298.050781 768.375 299.644531 C 771.546875 299.558594 774.742188 299.460938 777.894531 299.363281 C 780.695312 299.257812 783.503906 299.140625 786.335938 299.011719 Z M 797 389.007812 L 720.613281 389.296875 C 720.613281 389.296875 720.613281 389.296875 720.589844 389.296875 L 719.609375 389.296875 C 719.585938 389.296875 719.585938 389.296875 719.585938 389.296875 C 719.585938 389.296875 719.585938 389.296875 719.566406 389.296875 L 643.175781 389.007812 C 646.0625 390.980469 648.914062 393.246094 651.363281 395.953125 C 655.808594 400.875 658.253906 406.542969 658.371094 412.089844 C 659.558594 411.972656 660.734375 411.878906 661.929688 411.769531 C 662.121094 411.652344 662.347656 411.589844 662.589844 411.589844 C 662.710938 411.589844 662.835938 411.632812 662.953125 411.664062 C 681.921875 409.933594 701.101562 409.304688 720.089844 409.839844 C 739.097656 409.304688 758.257812 409.933594 777.222656 411.664062 C 777.339844 411.632812 777.46875 411.589844 777.605469 411.589844 C 777.832031 411.589844 778.054688 411.652344 778.238281 411.75 C 779.421875 411.878906 780.621094 411.972656 781.804688 412.089844 C 781.957031 406.542969 784.371094 400.875 788.835938 395.953125 C 791.285156 393.246094 794.117188 390.980469 797 389.007812 Z M 797.023438 436.101562 L 800.335938 415.824219 C 796.542969 415.890625 792.738281 415.921875 788.964844 415.941406 C 788.421875 417.980469 787.875 420.125 787.339844 422.1875 C 786.679688 424.800781 785.996094 427.488281 785.269531 430.007812 C 784.777344 431.664062 784.230469 433.519531 783.441406 435.332031 C 783.484375 435.332031 783.527344 435.332031 783.570312 435.332031 C 787.972656 435.738281 792.480469 435.984375 797.023438 436.101562 Z M 796.882812 298.597656 L 813.691406 297.871094 C 813.691406 295.992188 813.648438 292.257812 812.984375 291.148438 C 812.859375 291.167969 812.558594 291.167969 812.417969 291.167969 C 807.835938 291.234375 803.261719 291.371094 798.65625 291.511719 C 795.503906 291.605469 792.277344 291.691406 789.039062 291.777344 L 789.148438 298.894531 C 791.734375 298.800781 794.296875 298.691406 796.882812 298.597656 Z M 815.976562 468.628906 C 816.050781 467.96875 816.136719 467.296875 816.210938 466.632812 L 745.539062 469.078125 C 744.355469 469.121094 743.179688 469.171875 741.992188 469.214844 C 737.003906 469.460938 731.84375 469.675781 726.777344 468.9375 C 723.242188 468.40625 719.382812 468.757812 715.664062 469.097656 C 713.28125 469.300781 710.835938 469.515625 708.410156 469.515625 C 707.992188 469.515625 707.585938 469.515625 707.160156 469.492188 L 623.984375 466.632812 C 624.0625 467.296875 624.125 467.96875 624.230469 468.628906 C 624.53125 470.804688 625.011719 473.015625 626.453125 474.222656 C 627.863281 475.417969 629.4375 475.351562 631.445312 475.246094 C 632 475.234375 632.546875 475.191406 633.132812 475.214844 C 636.625 475.234375 640.132812 475.246094 643.625 475.265625 C 650.613281 475.332031 657.601562 475.417969 664.570312 475.535156 C 678.449219 475.777344 692.554688 476.152344 706.476562 476.6875 C 707.703125 476.71875 708.910156 476.847656 710.109375 476.941406 C 711.902344 477.101562 713.601562 477.261719 715.367188 477.210938 C 718.367188 477.082031 721.382812 477.027344 724.394531 476.941406 C 727.503906 476.867188 730.59375 476.804688 733.703125 476.6875 C 747.644531 476.152344 761.730469 475.777344 775.609375 475.535156 C 782.597656 475.417969 789.585938 475.332031 796.5625 475.265625 C 800.054688 475.246094 803.550781 475.234375 807.042969 475.214844 C 807.609375 475.191406 808.199219 475.234375 808.742188 475.246094 C 810.761719 475.351562 812.332031 475.417969 813.753906 474.222656 C 815.1875 473.015625 815.667969 470.804688 815.976562 468.628906 Z M 816.480469 463.785156 C 816.703125 461.0625 816.757812 458.339844 816.683594 455.621094 C 797.726562 457.617188 778.171875 459.140625 759.003906 459.140625 C 756.355469 459.140625 753.726562 459.132812 751.117188 459.066406 C 743.808594 458.886719 736.492188 458.777344 729.203125 458.683594 C 726.167969 458.640625 723.125 458.597656 720.089844 458.566406 C 717.066406 458.597656 714.03125 458.640625 710.996094 458.683594 C 703.6875 458.777344 696.367188 458.886719 689.082031 459.066406 C 686.453125 459.109375 683.824219 459.140625 681.195312 459.140625 C 662.003906 459.140625 642.472656 457.617188 623.496094 455.621094 C 623.417969 458.339844 623.496094 461.0625 623.699219 463.785156 L 707.253906 466.675781 C 709.90625 466.773438 712.714844 466.515625 715.417969 466.269531 C 719.296875 465.929688 723.328125 465.566406 727.203125 466.132812 C 731.992188 466.859375 736.777344 466.632812 741.863281 466.386719 C 743.0625 466.355469 744.257812 466.292969 745.445312 466.25 Z M 828.007812 372.382812 C 826.34375 372.285156 824.644531 372.179688 822.964844 372.105469 L 749.773438 367.941406 C 746.738281 367.761719 743.703125 367.535156 740.679688 367.324219 C 738.796875 367.183594 736.9375 367.035156 735.058594 366.917969 C 724.992188 366.234375 715.207031 366.234375 705.117188 366.917969 C 703.257812 367.035156 701.378906 367.183594 699.5 367.324219 C 696.496094 367.535156 693.441406 367.761719 690.4375 367.941406 L 617.234375 372.105469 C 615.535156 372.179688 613.855469 372.285156 612.191406 372.382812 C 620.449219 376.074219 628.546875 380.214844 636.347656 384.75 C 637.140625 385.199219 637.941406 385.679688 638.753906 386.167969 L 720.089844 386.46875 L 801.445312 386.167969 C 802.257812 385.679688 803.058594 385.199219 803.828125 384.75 C 811.648438 380.214844 819.75 376.074219 828.007812 372.382812 Z M 826.984375 435.195312 C 828.210938 428.664062 828.683594 422.003906 828.339844 415.378906 C 824.78125 415.441406 821.222656 415.503906 817.707031 415.558594 C 812.921875 415.644531 808.039062 415.730469 803.144531 415.78125 C 803.144531 415.890625 803.164062 415.964844 803.164062 416.070312 L 799.894531 436.207031 C 808.5625 436.347656 817.589844 436.003906 826.984375 435.195312 Z M 835.808594 466.132812 C 835.832031 461.265625 833.917969 456.761719 830.636719 454.039062 C 826.960938 454.488281 823.242188 454.894531 819.515625 455.289062 C 819.652344 459.878906 819.40625 464.5 818.753906 469.035156 C 818.382812 471.757812 817.730469 474.542969 815.570312 476.375 C 813.304688 478.296875 810.816406 478.179688 808.617188 478.074219 C 808.09375 478.050781 807.566406 478.007812 807.066406 478.03125 C 803.570312 478.050781 800.078125 478.074219 796.59375 478.09375 C 789.605469 478.160156 782.640625 478.234375 775.671875 478.351562 C 761.804688 478.597656 747.730469 478.980469 733.808594 479.503906 C 730.699219 479.632812 727.589844 479.683594 724.46875 479.769531 C 721.46875 479.84375 718.476562 479.910156 715.460938 480.015625 C 715.140625 480.039062 714.84375 480.039062 714.53125 480.039062 C 712.941406 480.039062 711.378906 479.886719 709.851562 479.75 C 708.71875 479.652344 707.542969 479.546875 706.367188 479.503906 C 692.46875 478.980469 678.394531 478.597656 664.527344 478.351562 C 657.558594 478.234375 650.570312 478.160156 643.605469 478.09375 C 640.109375 478.074219 636.625 478.050781 633.132812 478.03125 C 632.609375 478.03125 632.085938 478.050781 631.582031 478.074219 C 629.382812 478.179688 626.871094 478.296875 624.605469 476.375 C 622.46875 474.542969 621.804688 471.757812 621.421875 469.035156 C 620.769531 464.5 620.523438 459.878906 620.671875 455.289062 C 616.933594 454.894531 613.238281 454.488281 609.539062 454.039062 C 606.292969 456.761719 604.347656 461.265625 604.390625 466.132812 C 604.410156 470.390625 605.84375 474.839844 608.609375 479.363281 C 610.898438 483.078125 613.355469 485.457031 616.101562 486.632812 C 618.730469 487.761719 621.742188 487.816406 624.671875 487.902344 L 720.089844 490.175781 L 815.527344 487.902344 C 818.433594 487.816406 821.46875 487.761719 824.097656 486.632812 C 826.84375 485.457031 829.292969 483.078125 831.589844 479.363281 C 834.355469 474.839844 835.777344 470.390625 835.808594 466.132812 Z M 836.214844 369 C 837.167969 369.5 838.179688 370.042969 839.1875 370.589844 C 835.039062 359.105469 830.617188 347.417969 824.695312 336.671875 C 822.644531 332.9375 820.378906 329.246094 817.976562 325.734375 C 817.644531 325.265625 817.34375 324.785156 817.023438 324.285156 C 816.210938 323.023438 815.390625 321.742188 814.460938 320.824219 C 813.507812 319.898438 812.375 319.664062 810.625 319.34375 C 802.054688 317.761719 793.101562 317.71875 784.457031 317.679688 L 784.007812 317.679688 L 720.773438 317.441406 L 720.152344 317.464844 C 720.132812 317.464844 720.109375 317.464844 720.089844 317.464844 C 720.066406 317.464844 720.046875 317.464844 720.046875 317.464844 C 720.015625 317.441406 719.972656 317.441406 719.929688 317.441406 C 719.8125 317.441406 719.652344 317.441406 719.425781 317.441406 L 655.722656 317.679688 C 647.078125 317.71875 638.144531 317.761719 629.574219 319.34375 C 627.800781 319.664062 626.667969 319.898438 625.738281 320.824219 C 624.789062 321.742188 623.964844 323.046875 623.175781 324.304688 C 622.855469 324.785156 622.53125 325.265625 622.222656 325.734375 C 619.796875 329.246094 617.542969 332.9375 615.503906 336.671875 C 609.582031 347.417969 605.136719 359.105469 600.992188 370.589844 C 602.027344 370.042969 603.03125 369.5 603.960938 369 C 604.871094 368.507812 605.9375 368.667969 606.976562 368.816406 C 607.253906 368.847656 607.59375 368.933594 607.753906 368.914062 C 608.128906 368.871094 608.515625 368.796875 608.910156 368.710938 C 609.5625 368.59375 610.203125 368.464844 610.875 368.433594 C 612.917969 368.28125 614.980469 368.164062 617.019531 368.070312 L 690.191406 363.90625 C 693.195312 363.726562 696.207031 363.503906 699.199219 363.277344 C 701.101562 363.140625 702.980469 363.023438 704.851562 362.882812 C 715.097656 362.191406 725.078125 362.191406 735.347656 362.882812 C 737.207031 363.023438 739.097656 363.140625 740.976562 363.277344 C 743.992188 363.503906 747.003906 363.726562 749.984375 363.90625 L 823.167969 368.070312 C 825.230469 368.164062 827.273438 368.28125 829.3125 368.433594 C 829.996094 368.464844 830.636719 368.59375 831.269531 368.710938 C 831.675781 368.796875 832.082031 368.871094 832.476562 368.914062 C 832.644531 368.914062 832.925781 368.847656 833.222656 368.816406 C 834.261719 368.667969 835.308594 368.507812 836.214844 369 Z M 839.871094 375.507812 C 839.347656 375.230469 838.800781 374.941406 838.277344 374.664062 C 837.027344 374.003906 835.753906 373.332031 834.601562 372.703125 C 834.515625 372.703125 834.421875 372.722656 834.335938 372.742188 C 825.050781 376.660156 815.914062 381.140625 807.140625 386.148438 L 813.039062 386.105469 C 818.433594 386.082031 824.035156 386.0625 829.164062 384.386719 C 834.261719 382.734375 838.160156 379.445312 839.871094 375.507812 Z M 830.402344 411.300781 C 836.78125 400.9375 843.832031 389.339844 841.652344 378.21875 C 839.347656 382.167969 835.230469 385.402344 830.050781 387.074219 C 824.484375 388.890625 818.679688 388.910156 813.058594 388.953125 L 812.695312 388.953125 L 802.238281 388.984375 C 798.316406 391.386719 794.210938 394.214844 790.941406 397.84375 C 786.945312 402.261719 784.703125 407.511719 784.636719 412.398438 C 785.109375 412.453125 785.546875 412.496094 786.015625 412.558594 C 786.378906 412.175781 786.882812 411.929688 787.425781 411.929688 C 797.429688 411.878906 807.707031 411.695312 817.644531 411.523438 C 821.855469 411.449219 826.117188 411.386719 830.402344 411.300781 Z M 844.035156 433.261719 L 844.035156 433.242188 C 844.089844 427.085938 842.839844 420.875 840.414062 415.21875 C 837.328125 415.238281 834.261719 415.28125 831.171875 415.34375 C 831.492188 421.875 831.042969 428.460938 829.890625 434.917969 C 834.515625 434.46875 839.207031 433.925781 844.035156 433.261719 Z M 843.628906 372.925781 L 848.621094 372.605469 C 842.519531 357.132812 826.640625 321.210938 816.167969 315.246094 C 803.367188 307.914062 783.140625 305.714844 781.121094 305.511719 C 774.902344 305.714844 768.695312 305.875 762.476562 306.023438 C 742.3125 306.484375 721.15625 306.601562 697.820312 306.367188 C 685.949219 306.257812 673.253906 305.980469 659.078125 305.511719 C 657.035156 305.714844 636.808594 307.914062 624.007812 315.246094 C 613.535156 321.210938 597.679688 357.132812 591.578125 372.605469 L 596.566406 372.925781 C 596.792969 372.808594 597.046875 372.667969 597.292969 372.542969 C 601.78125 360.035156 606.484375 347.183594 613.011719 335.296875 C 615.117188 331.488281 617.414062 327.730469 619.882812 324.144531 C 620.183594 323.695312 620.492188 323.226562 620.792969 322.769531 C 621.679688 321.390625 622.585938 319.960938 623.742188 318.808594 C 625.355469 317.242188 627.234375 316.898438 629.050781 316.546875 C 637.886719 314.933594 646.960938 314.902344 655.722656 314.859375 L 719.40625 314.613281 C 719.609375 314.613281 719.832031 314.613281 720.046875 314.636719 L 721.019531 314.613281 L 784.476562 314.859375 C 793.238281 314.902344 802.3125 314.933594 811.125 316.546875 C 812.941406 316.898438 814.84375 317.242188 816.4375 318.808594 C 817.589844 319.960938 818.519531 321.371094 819.40625 322.769531 C 819.707031 323.226562 819.996094 323.695312 820.292969 324.144531 C 822.761719 327.730469 825.082031 331.488281 827.1875 335.296875 C 833.714844 347.183594 838.417969 360.035156 842.902344 372.542969 C 843.148438 372.667969 843.386719 372.808594 843.628906 372.925781 Z M 852.765625 431.949219 C 852.925781 425.910156 850.84375 419.796875 847.007812 415.164062 C 845.8125 415.164062 844.625 415.175781 843.449219 415.175781 C 845.691406 420.765625 846.867188 426.816406 846.867188 432.835938 C 848.824219 432.558594 850.769531 432.269531 852.765625 431.949219 Z M 858.730469 438.269531 C 857.628906 437.371094 856.398438 436.644531 855.105469 436.144531 C 854.859375 436.046875 854.65625 435.898438 854.476562 435.738281 C 828.09375 440.136719 804.757812 441.332031 783.207031 439.355469 C 782.394531 439.292969 782.277344 439.3125 782.117188 439.355469 C 781.773438 439.429688 781.398438 439.515625 780.757812 439.558594 C 780.4375 439.878906 780.117188 440.199219 779.742188 440.519531 C 776.433594 443.390625 772.113281 444 767.710938 444 C 766.699219 444 765.671875 443.957031 764.65625 443.914062 C 755.105469 443.507812 746.214844 443.390625 736.800781 443.25 C 731.320312 443.167969 725.785156 443.070312 720.089844 442.921875 C 714.414062 443.070312 708.878906 443.167969 703.386719 443.25 C 693.984375 443.390625 685.09375 443.507812 675.519531 443.914062 C 674.515625 443.957031 673.5 444 672.476562 444 C 668.082031 444 663.765625 443.390625 660.433594 440.519531 C 660.082031 440.199219 659.738281 439.878906 659.441406 439.558594 C 658.777344 439.515625 658.414062 439.429688 658.070312 439.355469 C 657.921875 439.3125 657.785156 439.292969 656.972656 439.355469 C 635.417969 441.332031 612.105469 440.136719 585.722656 435.738281 C 585.539062 435.898438 585.335938 436.046875 585.09375 436.144531 C 583.777344 436.644531 582.570312 437.371094 581.480469 438.269531 C 583.191406 442.097656 586.8125 445.449219 591.621094 447.5 C 596.28125 449.527344 601.398438 450.253906 607.136719 450.933594 C 633.601562 454.0625 661.824219 456.867188 689.015625 456.238281 C 696.335938 456.058594 703.644531 455.960938 710.953125 455.855469 C 713.28125 455.832031 715.621094 455.800781 717.953125 455.757812 C 718.046875 455.738281 718.15625 455.714844 718.25 455.714844 C 718.25 455.714844 718.25 455.714844 718.273438 455.714844 C 718.882812 455.714844 719.480469 455.714844 720.089844 455.738281 C 720.699219 455.714844 721.308594 455.714844 721.925781 455.714844 C 721.925781 455.714844 721.925781 455.714844 721.949219 455.714844 C 722.054688 455.714844 722.128906 455.738281 722.238281 455.757812 C 724.578125 455.800781 726.894531 455.832031 729.246094 455.855469 C 736.554688 455.960938 743.875 456.058594 751.183594 456.238281 C 778.332031 456.867188 806.597656 454.0625 833.0625 450.933594 C 838.78125 450.253906 843.917969 449.527344 848.578125 447.5 C 853.363281 445.449219 856.988281 442.097656 858.730469 438.269531 Z M 856.101562 512.777344 C 856.378906 502.449219 856.496094 492.03125 856.539062 481.648438 C 852.039062 488.808594 844.859375 494.816406 836.054688 498.574219 C 832.28125 500.164062 828.234375 501.378906 823.832031 502.265625 C 824.398438 504.785156 824.867188 507.335938 825.1875 509.875 C 825.285156 510.675781 825.285156 511.53125 825.304688 512.4375 C 825.328125 513.652344 825.371094 515.457031 825.734375 516.042969 C 827.1875 518.433594 832.945312 518.242188 835.402344 518.167969 L 851.953125 517.625 C 852.980469 517.601562 854.402344 517.558594 855.019531 517.078125 C 855.875 516.429688 856.035156 514.539062 856.101562 512.777344 Z M 857.445312 456.378906 C 857.808594 452.109375 858.195312 447.894531 858.601562 443.667969 C 856.355469 446.316406 853.332031 448.554688 849.6875 450.113281 C 844.902344 452.164062 839.835938 452.953125 834.21875 453.636719 C 837.027344 456.890625 838.664062 461.382812 838.640625 466.152344 C 838.597656 470.933594 837.046875 475.875 833.992188 480.835938 C 831.386719 485.074219 828.523438 487.816406 825.210938 489.234375 C 822.078125 490.558594 818.636719 490.644531 815.59375 490.71875 L 720.269531 493.003906 C 720.269531 493.003906 720.25 493.023438 720.226562 493.023438 L 720.207031 493.023438 L 720.089844 493.003906 L 719.992188 493.023438 C 719.972656 493.023438 719.972656 493.023438 719.949219 493.023438 C 719.929688 493.023438 719.929688 493.003906 719.90625 493.003906 L 624.59375 490.71875 C 621.5625 490.644531 618.109375 490.558594 614.988281 489.234375 C 611.675781 487.816406 608.8125 485.074219 606.207031 480.835938 C 603.148438 475.875 601.578125 470.933594 601.558594 466.152344 C 601.515625 461.382812 603.148438 456.890625 605.980469 453.636719 C 600.359375 452.953125 595.273438 452.164062 590.488281 450.113281 C 586.867188 448.554688 583.820312 446.316406 581.597656 443.667969 C 581.984375 447.894531 582.390625 452.109375 582.753906 456.378906 C 583.007812 459.613281 583.320312 462.878906 583.863281 466.066406 C 584.183594 466.570312 584.386719 467.179688 584.34375 467.816406 C 584.324219 467.96875 584.28125 468.085938 584.269531 468.222656 C 584.6875 470.1875 585.230469 472.097656 585.957031 473.933594 C 589.25 482.171875 596.683594 489.257812 606.34375 493.367188 C 614.328125 496.761719 623.65625 498.351562 635.738281 498.351562 C 665.359375 498.371094 694.980469 498.371094 724.597656 498.371094 C 750.09375 498.351562 775.585938 498.351562 801.105469 498.351562 L 804.457031 498.351562 C 816.523438 498.351562 825.851562 496.761719 833.832031 493.367188 C 843.492188 489.257812 850.929688 482.171875 854.21875 473.933594 C 854.96875 472.097656 855.492188 470.1875 855.917969 468.222656 C 855.898438 468.085938 855.855469 467.96875 855.855469 467.816406 C 855.8125 467.179688 855.992188 466.570312 856.335938 466.066406 C 856.878906 462.878906 857.167969 459.613281 857.445312 456.378906 Z M 861.230469 415.441406 C 863.269531 400.105469 862.90625 385.359375 860.460938 383.746094 C 856.132812 380.855469 852.839844 378.015625 851.164062 376.480469 L 844.28125 376.925781 C 846.984375 388.785156 840.019531 401.035156 833.757812 411.269531 C 838.480469 411.203125 843.226562 411.140625 847.914062 411.109375 C 848.503906 411.109375 849.046875 411.34375 849.433594 411.792969 C 854.402344 417.363281 857.0625 425.003906 856.761719 432.472656 C 857.714844 432.859375 858.644531 433.335938 859.53125 433.902344 C 860.117188 427.789062 860.707031 421.671875 861.230469 415.441406 Z M 879.53125 368.730469 C 881.007812 366.011719 879.800781 362.457031 877.835938 360.355469 C 874.808594 357.132812 869.671875 355.636719 862.160156 355.820312 C 859.691406 355.859375 857.191406 356.097656 855.652344 357.472656 C 854.113281 358.828125 853.566406 361.144531 853.066406 363.8125 C 852.96875 364.335938 852.660156 364.78125 852.242188 365.082031 C 852.070312 365.175781 851.910156 365.261719 851.773438 365.316406 C 852.96875 368.230469 853.855469 370.472656 854.335938 371.71875 C 854.96875 372.304688 856.28125 373.511719 858.097656 374.984375 C 862.660156 374.910156 867.222656 374.367188 871.648438 373.277344 C 874.320312 372.625 878.058594 371.453125 879.53125 368.730469 Z M 880.761719 357.589844 C 884.277344 361.324219 885.226562 366.691406 883.089844 370.652344 C 880.824219 374.78125 876.039062 376.382812 872.597656 377.203125 C 869.511719 377.953125 866.335938 378.453125 863.164062 378.742188 C 863.3125 378.835938 863.453125 378.945312 863.589844 379.019531 C 870.375 383.566406 868.132812 406.421875 866.839844 416.070312 C 866.285156 422.867188 865.609375 429.667969 864.96875 436.464844 C 864.316406 443.210938 863.675781 449.964844 863.089844 456.867188 C 862.769531 460.582031 862.414062 464.351562 861.710938 468.105469 C 861.933594 468.714844 862.246094 469.535156 862.246094 470.507812 C 862.296875 484.59375 862.136719 498.871094 861.753906 512.917969 C 861.679688 515.113281 861.570312 519.191406 858.460938 521.5625 C 856.378906 523.152344 853.8125 523.226562 852.113281 523.269531 L 835.59375 523.8125 C 834.945312 523.835938 834.175781 523.855469 833.332031 523.855469 C 829.3125 523.855469 823.53125 523.289062 820.902344 519.011719 C 819.726562 517.101562 819.683594 514.675781 819.652344 512.53125 C 819.652344 511.828125 819.632812 511.144531 819.566406 510.578125 C 819.246094 508.09375 818.796875 505.640625 818.253906 503.195312 C 814.011719 503.738281 809.449219 504.007812 804.457031 504.007812 L 801.105469 504.007812 C 775.585938 504.007812 750.09375 504.007812 724.597656 504.015625 C 708.558594 504.015625 692.511719 504.015625 676.492188 504.015625 C 662.890625 504.015625 649.320312 504.015625 635.738281 504.007812 C 630.730469 504.007812 626.164062 503.738281 621.945312 503.195312 C 621.398438 505.640625 620.929688 508.09375 620.632812 510.578125 C 620.546875 511.144531 620.546875 511.828125 620.523438 512.53125 C 620.492188 514.675781 620.449219 517.101562 619.273438 519.011719 C 616.644531 523.289062 610.898438 523.855469 606.847656 523.855469 C 606.003906 523.855469 605.253906 523.835938 604.613281 523.8125 L 588.0625 523.269531 C 586.363281 523.226562 583.820312 523.152344 581.738281 521.5625 C 578.628906 519.191406 578.511719 515.113281 578.445312 512.917969 C 578.039062 498.871094 577.878906 484.59375 577.945312 470.507812 C 577.945312 469.535156 578.242188 468.734375 578.46875 468.105469 C 577.761719 464.351562 577.429688 460.582031 577.109375 456.867188 C 576.523438 449.941406 575.859375 443.1875 575.207031 436.421875 C 574.566406 429.644531 573.914062 422.867188 573.316406 415.921875 C 572.066406 406.421875 569.800781 383.566406 576.585938 379.019531 C 576.746094 378.945312 576.875 378.835938 577.015625 378.742188 C 573.839844 378.453125 570.6875 377.953125 567.578125 377.203125 C 564.160156 376.382812 559.351562 374.78125 557.109375 370.652344 C 554.96875 366.691406 555.921875 361.324219 559.414062 357.589844 C 563.273438 353.503906 569.375 351.601562 578.125 351.785156 C 581.351562 351.839844 584.707031 352.222656 587.230469 354.464844 C 589.054688 356.085938 589.964844 358.285156 590.507812 360.355469 C 597.519531 343.929688 610.511719 316.429688 621.21875 310.3125 C 626.027344 307.570312 631.65625 305.511719 637.097656 303.984375 L 623.539062 303.398438 C 622.769531 303.355469 622.0625 303.035156 621.5625 302.46875 C 621.058594 301.90625 620.792969 301.15625 620.835938 300.410156 C 620.875 299.921875 620.855469 299.257812 620.855469 298.488281 C 620.835938 294.136719 620.792969 288.179688 624.390625 286.207031 C 625.683594 285.480469 627 285.492188 627.863281 285.523438 C 632.46875 285.578125 637.074219 285.714844 641.703125 285.867188 C 648.691406 286.078125 655.925781 286.304688 663.039062 286.226562 L 705.097656 285.800781 C 715.035156 285.707031 725.144531 285.707031 735.101562 285.800781 L 777.160156 286.226562 C 784.253906 286.304688 791.488281 286.078125 798.496094 285.867188 C 803.101562 285.714844 807.730469 285.578125 812.332031 285.523438 C 813.1875 285.492188 814.523438 285.480469 815.796875 286.207031 C 819.40625 288.179688 819.363281 294.136719 819.320312 298.488281 C 819.320312 299.257812 819.320312 299.921875 819.34375 300.410156 C 819.386719 301.15625 819.152344 301.90625 818.617188 302.46875 C 818.113281 303.035156 817.410156 303.355469 816.640625 303.398438 L 803.082031 303.984375 C 808.519531 305.511719 814.171875 307.570312 818.980469 310.3125 C 829.675781 316.429688 842.679688 343.929688 849.6875 360.355469 C 850.234375 358.285156 851.121094 356.085938 852.96875 354.464844 C 855.492188 352.222656 858.824219 351.839844 862.050781 351.785156 C 870.804688 351.601562 876.925781 353.503906 880.761719 357.589844 "/></g><path style=" stroke:none;fill-rule:nonzero;fill:#666666;fill-opacity:1;" d="M 877.835938 360.355469 C 879.800781 362.457031 881.007812 366.011719 879.53125 368.730469 C 878.058594 371.453125 874.320312 372.625 871.648438 373.277344 C 867.222656 374.367188 862.660156 374.910156 858.097656 374.984375 C 856.28125 373.511719 854.96875 372.304688 854.335938 371.71875 C 853.855469 370.472656 852.96875 368.230469 851.773438 365.316406 C 851.910156 365.261719 852.070312 365.175781 852.242188 365.082031 C 852.660156 364.78125 852.96875 364.335938 853.066406 363.8125 C 853.566406 361.144531 854.113281 358.828125 855.652344 357.472656 C 857.191406 356.097656 859.691406 355.859375 862.160156 355.820312 C 869.671875 355.636719 874.808594 357.132812 877.835938 360.355469 "/><path style=" stroke:none;fill-rule:nonzero;fill:#4d4d4d;fill-opacity:1;" d="M 860.460938 383.746094 C 862.90625 385.359375 863.269531 400.105469 861.230469 415.441406 C 860.707031 421.671875 860.117188 427.789062 859.53125 433.902344 C 858.644531 433.335938 857.714844 432.859375 856.761719 432.472656 C 857.0625 425.003906 854.402344 417.363281 849.433594 411.792969 C 849.046875 411.34375 848.503906 411.109375 847.914062 411.109375 C 843.226562 411.140625 838.480469 411.203125 833.757812 411.269531 C 840.019531 401.035156 846.984375 388.785156 844.28125 376.925781 L 851.164062 376.480469 C 852.839844 378.015625 856.132812 380.855469 860.460938 383.746094 "/><path style=" stroke:none;fill-rule:nonzero;fill:#4d4d4d;fill-opacity:1;" d="M 858.601562 443.667969 C 858.195312 447.894531 857.808594 452.109375 857.445312 456.378906 C 857.167969 459.613281 856.878906 462.878906 856.335938 466.066406 C 855.992188 466.570312 855.8125 467.179688 855.855469 467.816406 C 855.855469 467.96875 855.898438 468.085938 855.917969 468.222656 C 855.492188 470.1875 854.96875 472.097656 854.21875 473.933594 C 850.929688 482.171875 843.492188 489.257812 833.832031 493.367188 C 825.851562 496.761719 816.523438 498.351562 804.457031 498.351562 L 801.105469 498.351562 C 775.585938 498.351562 750.09375 498.351562 724.597656 498.371094 C 694.980469 498.371094 665.359375 498.371094 635.738281 498.351562 C 623.65625 498.351562 614.328125 496.761719 606.34375 493.367188 C 596.683594 489.257812 589.25 482.171875 585.957031 473.933594 C 585.230469 472.097656 584.6875 470.1875 584.269531 468.222656 C 584.28125 468.085938 584.324219 467.96875 584.34375 467.816406 C 584.386719 467.179688 584.183594 466.570312 583.863281 466.066406 C 583.320312 462.878906 583.007812 459.613281 582.753906 456.378906 C 582.390625 452.109375 581.984375 447.894531 581.597656 443.667969 C 583.820312 446.316406 586.867188 448.554688 590.488281 450.113281 C 595.273438 452.164062 600.359375 452.953125 605.980469 453.636719 C 603.148438 456.890625 601.515625 461.382812 601.558594 466.152344 C 601.578125 470.933594 603.148438 475.875 606.207031 480.835938 C 608.8125 485.074219 611.675781 487.816406 614.988281 489.234375 C 618.109375 490.558594 621.5625 490.644531 624.59375 490.71875 L 719.90625 493.003906 C 719.929688 493.003906 719.929688 493.023438 719.949219 493.023438 C 719.972656 493.023438 719.972656 493.023438 719.992188 493.023438 L 720.089844 493.003906 L 720.207031 493.023438 L 720.226562 493.023438 C 720.25 493.023438 720.269531 493.003906 720.269531 493.003906 L 815.59375 490.71875 C 818.636719 490.644531 822.078125 490.558594 825.210938 489.234375 C 828.523438 487.816406 831.386719 485.074219 833.992188 480.835938 C 837.046875 475.875 838.597656 470.933594 838.640625 466.152344 C 838.664062 461.382812 837.027344 456.890625 834.21875 453.636719 C 839.835938 452.953125 844.902344 452.164062 849.6875 450.113281 C 853.332031 448.554688 856.355469 446.316406 858.601562 443.667969 "/><path style=" stroke:none;fill-rule:nonzero;fill:#333333;fill-opacity:1;" d="M 856.539062 481.648438 C 856.496094 492.03125 856.378906 502.449219 856.101562 512.777344 C 856.035156 514.539062 855.875 516.429688 855.019531 517.078125 C 854.402344 517.558594 852.980469 517.601562 851.953125 517.625 L 835.402344 518.167969 C 832.945312 518.242188 827.1875 518.433594 825.734375 516.042969 C 825.371094 515.457031 825.328125 513.652344 825.304688 512.4375 C 825.285156 511.53125 825.285156 510.675781 825.1875 509.875 C 824.867188 507.335938 824.398438 504.785156 823.832031 502.265625 C 828.234375 501.378906 832.28125 500.164062 836.054688 498.574219 C 844.859375 494.816406 852.039062 488.808594 856.539062 481.648438 "/><path style=" stroke:none;fill-rule:nonzero;fill:#666666;fill-opacity:1;" d="M 855.105469 436.144531 C 856.398438 436.644531 857.628906 437.371094 858.730469 438.269531 C 856.988281 442.097656 853.363281 445.449219 848.578125 447.5 C 843.917969 449.527344 838.78125 450.253906 833.0625 450.933594 C 806.597656 454.0625 778.332031 456.867188 751.183594 456.238281 C 743.875 456.058594 736.554688 455.960938 729.246094 455.855469 C 726.894531 455.832031 724.578125 455.800781 722.238281 455.757812 C 722.128906 455.738281 722.054688 455.714844 721.949219 455.714844 C 721.925781 455.714844 721.925781 455.714844 721.925781 455.714844 C 721.308594 455.714844 720.699219 455.714844 720.089844 455.738281 C 719.480469 455.714844 718.882812 455.714844 718.273438 455.714844 C 718.25 455.714844 718.25 455.714844 718.25 455.714844 C 718.15625 455.714844 718.046875 455.738281 717.953125 455.757812 C 715.621094 455.800781 713.28125 455.832031 710.953125 455.855469 C 703.644531 455.960938 696.335938 456.058594 689.015625 456.238281 C 661.824219 456.867188 633.601562 454.0625 607.136719 450.933594 C 601.398438 450.253906 596.28125 449.527344 591.621094 447.5 C 586.8125 445.449219 583.191406 442.097656 581.480469 438.269531 C 582.570312 437.371094 583.777344 436.644531 585.09375 436.144531 C 585.335938 436.046875 585.539062 435.898438 585.722656 435.738281 C 612.105469 440.136719 635.417969 441.332031 656.972656 439.355469 C 657.785156 439.292969 657.921875 439.3125 658.070312 439.355469 C 658.414062 439.429688 658.777344 439.515625 659.441406 439.558594 C 659.738281 439.878906 660.082031 440.199219 660.433594 440.519531 C 663.765625 443.390625 668.082031 444 672.476562 444 C 673.5 444 674.515625 443.957031 675.519531 443.914062 C 685.09375 443.507812 693.984375 443.390625 703.386719 443.25 C 708.878906 443.167969 714.414062 443.070312 720.089844 442.921875 C 725.785156 443.070312 731.320312 443.167969 736.800781 443.25 C 746.214844 443.390625 755.105469 443.507812 764.65625 443.914062 C 765.671875 443.957031 766.699219 444 767.710938 444 C 772.113281 444 776.433594 443.390625 779.742188 440.519531 C 780.117188 440.199219 780.4375 439.878906 780.757812 439.558594 C 781.398438 439.515625 781.773438 439.429688 782.117188 439.355469 C 782.277344 439.3125 782.394531 439.292969 783.207031 439.355469 C 804.757812 441.332031 828.09375 440.136719 854.476562 435.738281 C 854.65625 435.898438 854.859375 436.046875 855.105469 436.144531 "/><path style=" stroke:none;fill-rule:nonzero;fill:#f7931e;fill-opacity:1;" d="M 847.007812 415.164062 C 850.84375 419.796875 852.925781 425.910156 852.765625 431.949219 C 850.769531 432.269531 848.824219 432.558594 846.867188 432.835938 C 846.867188 426.816406 845.691406 420.765625 843.449219 415.175781 C 844.625 415.175781 845.8125 415.164062 847.007812 415.164062 "/><path style=" stroke:none;fill-rule:nonzero;fill:#f2f2f2;fill-opacity:1;" d="M 848.621094 372.605469 L 843.628906 372.925781 C 843.386719 372.808594 843.148438 372.667969 842.902344 372.542969 C 838.417969 360.035156 833.714844 347.183594 827.1875 335.296875 C 825.082031 331.488281 822.761719 327.730469 820.292969 324.144531 C 819.996094 323.695312 819.707031 323.226562 819.40625 322.769531 C 818.519531 321.371094 817.589844 319.960938 816.4375 318.808594 C 814.84375 317.242188 812.941406 316.898438 811.125 316.546875 C 802.3125 314.933594 793.238281 314.902344 784.476562 314.859375 L 721.019531 314.613281 L 720.046875 314.636719 C 719.832031 314.613281 719.609375 314.613281 719.40625 314.613281 L 655.722656 314.859375 C 646.960938 314.902344 637.886719 314.933594 629.050781 316.546875 C 627.234375 316.898438 625.355469 317.242188 623.742188 318.808594 C 622.585938 319.960938 621.679688 321.390625 620.792969 322.769531 C 620.492188 323.226562 620.183594 323.695312 619.882812 324.144531 C 617.414062 327.730469 615.117188 331.488281 613.011719 335.296875 C 606.484375 347.183594 601.78125 360.035156 597.292969 372.542969 C 597.046875 372.667969 596.792969 372.808594 596.566406 372.925781 L 591.578125 372.605469 C 597.679688 357.132812 613.535156 321.210938 624.007812 315.246094 C 636.808594 307.914062 657.035156 305.714844 659.078125 305.511719 C 673.253906 305.980469 685.949219 306.257812 697.820312 306.367188 C 721.15625 306.601562 742.3125 306.484375 762.476562 306.023438 C 768.695312 305.875 774.902344 305.714844 781.121094 305.511719 C 783.140625 305.714844 803.367188 307.914062 816.167969 315.246094 C 826.640625 321.210938 842.519531 357.132812 848.621094 372.605469 "/><path style=" stroke:none;fill-rule:nonzero;fill:#f2f2f2;fill-opacity:1;" d="M 844.035156 433.242188 L 844.035156 433.261719 C 839.207031 433.925781 834.515625 434.46875 829.890625 434.917969 C 831.042969 428.460938 831.492188 421.875 831.171875 415.34375 C 834.261719 415.28125 837.328125 415.238281 840.414062 415.21875 C 842.839844 420.875 844.089844 427.085938 844.035156 433.242188 "/><path style=" stroke:none;fill-rule:nonzero;fill:#666666;fill-opacity:1;" d="M 841.652344 378.21875 C 843.832031 389.339844 836.78125 400.9375 830.402344 411.300781 C 826.117188 411.386719 821.855469 411.449219 817.644531 411.523438 C 807.707031 411.695312 797.429688 411.878906 787.425781 411.929688 C 786.882812 411.929688 786.378906 412.175781 786.015625 412.558594 C 785.546875 412.496094 785.109375 412.453125 784.636719 412.398438 C 784.703125 407.511719 786.945312 402.261719 790.941406 397.84375 C 794.210938 394.214844 798.316406 391.386719 802.238281 388.984375 L 812.695312 388.953125 L 813.058594 388.953125 C 818.679688 388.910156 824.484375 388.890625 830.050781 387.074219 C 835.230469 385.402344 839.347656 382.167969 841.652344 378.21875 "/><path style=" stroke:none;fill-rule:nonzero;fill:#4d4d4d;fill-opacity:1;" d="M 838.277344 374.664062 C 838.800781 374.941406 839.347656 375.230469 839.871094 375.507812 C 838.160156 379.445312 834.261719 382.734375 829.164062 384.386719 C 824.035156 386.0625 818.433594 386.082031 813.039062 386.105469 L 807.140625 386.148438 C 815.914062 381.140625 825.050781 376.660156 834.335938 372.742188 C 834.421875 372.722656 834.515625 372.703125 834.601562 372.703125 C 835.753906 373.332031 837.027344 374.003906 838.277344 374.664062 "/><path style=" stroke:none;fill-rule:nonzero;fill:#97b7ac;fill-opacity:1;" d="M 839.1875 370.589844 C 838.179688 370.042969 837.167969 369.5 836.214844 369 C 835.308594 368.507812 834.261719 368.667969 833.222656 368.816406 C 832.925781 368.847656 832.644531 368.914062 832.476562 368.914062 C 832.082031 368.871094 831.675781 368.796875 831.269531 368.710938 C 830.636719 368.59375 829.996094 368.464844 829.3125 368.433594 C 827.273438 368.28125 825.230469 368.164062 823.167969 368.070312 L 749.984375 363.90625 C 747.003906 363.726562 743.992188 363.503906 740.976562 363.277344 C 739.097656 363.140625 737.207031 363.023438 735.347656 362.882812 C 725.078125 362.191406 715.097656 362.191406 704.851562 362.882812 C 702.980469 363.023438 701.101562 363.140625 699.199219 363.277344 C 696.207031 363.503906 693.195312 363.726562 690.191406 363.90625 L 617.019531 368.070312 C 614.980469 368.164062 612.917969 368.28125 610.875 368.433594 C 610.203125 368.464844 609.5625 368.59375 608.910156 368.710938 C 608.515625 368.796875 608.128906 368.871094 607.753906 368.914062 C 607.59375 368.933594 607.253906 368.847656 606.976562 368.816406 C 605.9375 368.667969 604.871094 368.507812 603.960938 369 C 603.03125 369.5 602.027344 370.042969 600.992188 370.589844 C 605.136719 359.105469 609.582031 347.417969 615.503906 336.671875 C 617.542969 332.9375 619.796875 329.246094 622.222656 325.734375 C 622.53125 325.265625 622.855469 324.785156 623.175781 324.304688 C 623.964844 323.046875 624.789062 321.742188 625.738281 320.824219 C 626.667969 319.898438 627.800781 319.664062 629.574219 319.34375 C 638.144531 317.761719 647.078125 317.71875 655.722656 317.679688 L 719.425781 317.441406 C 719.652344 317.441406 719.8125 317.441406 719.929688 317.441406 C 719.972656 317.441406 720.015625 317.441406 720.046875 317.464844 C 720.046875 317.464844 720.066406 317.464844 720.089844 317.464844 C 720.109375 317.464844 720.132812 317.464844 720.152344 317.464844 L 720.773438 317.441406 L 784.007812 317.679688 L 784.457031 317.679688 C 793.101562 317.71875 802.054688 317.761719 810.625 319.34375 C 812.375 319.664062 813.507812 319.898438 814.460938 320.824219 C 815.390625 321.742188 816.210938 323.023438 817.023438 324.285156 C 817.34375 324.785156 817.644531 325.265625 817.976562 325.734375 C 820.378906 329.246094 822.644531 332.9375 824.695312 336.671875 C 830.617188 347.417969 835.039062 359.105469 839.1875 370.589844 "/><path style=" stroke:none;fill-rule:nonzero;fill:#333333;fill-opacity:1;" d="M 830.636719 454.039062 C 833.917969 456.761719 835.832031 461.265625 835.808594 466.132812 C 835.777344 470.390625 834.355469 474.839844 831.589844 479.363281 C 829.292969 483.078125 826.84375 485.457031 824.097656 486.632812 C 821.46875 487.761719 818.433594 487.816406 815.527344 487.902344 L 720.089844 490.175781 L 624.671875 487.902344 C 621.742188 487.816406 618.730469 487.761719 616.101562 486.632812 C 613.355469 485.457031 610.898438 483.078125 608.609375 479.363281 C 605.84375 474.839844 604.410156 470.390625 604.390625 466.132812 C 604.347656 461.265625 606.292969 456.761719 609.539062 454.039062 C 613.238281 454.488281 616.933594 454.894531 620.671875 455.289062 C 620.523438 459.878906 620.769531 464.5 621.421875 469.035156 C 621.804688 471.757812 622.46875 474.542969 624.605469 476.375 C 626.871094 478.296875 629.382812 478.179688 631.582031 478.074219 C 632.085938 478.050781 632.609375 478.03125 633.132812 478.03125 C 636.625 478.050781 640.109375 478.074219 643.605469 478.09375 C 650.570312 478.160156 657.558594 478.234375 664.527344 478.351562 C 678.394531 478.597656 692.46875 478.980469 706.367188 479.503906 C 707.542969 479.546875 708.71875 479.652344 709.851562 479.75 C 711.378906 479.886719 712.941406 480.039062 714.53125 480.039062 C 714.84375 480.039062 715.140625 480.039062 715.460938 480.015625 C 718.476562 479.910156 721.46875 479.84375 724.46875 479.769531 C 727.589844 479.683594 730.699219 479.632812 733.808594 479.503906 C 747.730469 478.980469 761.804688 478.597656 775.671875 478.351562 C 782.640625 478.234375 789.605469 478.160156 796.59375 478.09375 C 800.078125 478.074219 803.570312 478.050781 807.066406 478.03125 C 807.566406 478.007812 808.09375 478.050781 808.617188 478.074219 C 810.816406 478.179688 813.304688 478.296875 815.570312 476.375 C 817.730469 474.542969 818.382812 471.757812 818.753906 469.035156 C 819.40625 464.5 819.652344 459.878906 819.515625 455.289062 C 823.242188 454.894531 826.960938 454.488281 830.636719 454.039062 "/><path style=" stroke:none;fill-rule:nonzero;fill:#f2f2f2;fill-opacity:1;" d="M 820.496094 428.621094 C 821.351562 426.625 820.902344 424.117188 819.34375 422.261719 C 817.867188 420.488281 815.871094 419.5625 814.03125 419.742188 C 812.515625 419.902344 811.242188 420.832031 810.441406 422.347656 C 809.351562 424.363281 809.246094 426.816406 810.152344 428.738281 C 810.945312 430.390625 812.398438 431.480469 814.234375 431.84375 C 814.597656 431.929688 814.941406 431.972656 815.304688 431.972656 C 817.503906 431.972656 819.632812 430.660156 820.496094 428.621094 Z M 828.339844 415.378906 C 828.683594 422.003906 828.210938 428.664062 826.984375 435.195312 C 817.589844 436.003906 808.5625 436.347656 799.894531 436.207031 L 803.164062 416.070312 C 803.164062 415.964844 803.144531 415.890625 803.144531 415.78125 C 808.039062 415.730469 812.921875 415.644531 817.707031 415.558594 C 821.222656 415.503906 824.78125 415.441406 828.339844 415.378906 "/><path style=" stroke:none;fill-rule:nonzero;fill:#4d4d4d;fill-opacity:1;" d="M 822.964844 372.105469 C 824.644531 372.179688 826.34375 372.285156 828.007812 372.382812 C 819.75 376.074219 811.648438 380.214844 803.828125 384.75 C 803.058594 385.199219 802.257812 385.679688 801.445312 386.167969 L 720.089844 386.46875 L 638.753906 386.167969 C 637.941406 385.679688 637.140625 385.199219 636.347656 384.75 C 628.546875 380.214844 620.449219 376.074219 612.191406 372.382812 C 613.855469 372.285156 615.535156 372.179688 617.234375 372.105469 L 690.4375 367.941406 C 693.441406 367.761719 696.496094 367.535156 699.5 367.324219 C 701.378906 367.183594 703.257812 367.035156 705.117188 366.917969 C 715.207031 366.234375 724.992188 366.234375 735.058594 366.917969 C 736.9375 367.035156 738.796875 367.183594 740.679688 367.324219 C 743.703125 367.535156 746.738281 367.761719 749.773438 367.941406 L 822.964844 372.105469 "/><path style=" stroke:none;fill-rule:nonzero;fill:#000000;fill-opacity:1;" d="M 817.890625 427.511719 C 818.390625 426.335938 817.890625 424.949219 817.183594 424.074219 C 816.382812 423.136719 815.367188 422.546875 814.523438 422.546875 C 814.460938 422.546875 814.394531 422.546875 814.34375 422.546875 C 813.753906 422.601562 813.304688 422.964844 812.921875 423.679688 C 812.28125 424.90625 812.195312 426.421875 812.71875 427.53125 C 813.101562 428.375 813.808594 428.898438 814.78125 429.078125 C 814.941406 429.121094 815.101562 429.121094 815.28125 429.121094 C 816.382812 429.121094 817.460938 428.480469 817.890625 427.511719 Z M 819.34375 422.261719 C 820.902344 424.117188 821.351562 426.625 820.496094 428.621094 C 819.632812 430.660156 817.503906 431.972656 815.304688 431.972656 C 814.941406 431.972656 814.597656 431.929688 814.234375 431.84375 C 812.398438 431.480469 810.945312 430.390625 810.152344 428.738281 C 809.246094 426.816406 809.351562 424.363281 810.441406 422.347656 C 811.242188 420.832031 812.515625 419.902344 814.03125 419.742188 C 815.871094 419.5625 817.867188 420.488281 819.34375 422.261719 "/><path style=" stroke:none;fill-rule:nonzero;fill:#f2f2f2;fill-opacity:1;" d="M 817.183594 424.074219 C 817.890625 424.949219 818.390625 426.335938 817.890625 427.511719 C 817.460938 428.480469 816.382812 429.121094 815.28125 429.121094 C 815.101562 429.121094 814.941406 429.121094 814.78125 429.078125 C 813.808594 428.898438 813.101562 428.375 812.71875 427.53125 C 812.195312 426.421875 812.28125 424.90625 812.921875 423.679688 C 813.304688 422.964844 813.753906 422.601562 814.34375 422.546875 C 814.394531 422.546875 814.460938 422.546875 814.523438 422.546875 C 815.367188 422.546875 816.382812 423.136719 817.183594 424.074219 "/><path style=" stroke:none;fill-rule:nonzero;fill:#333333;fill-opacity:1;" d="M 816.683594 455.621094 C 816.757812 458.339844 816.703125 461.0625 816.480469 463.785156 L 745.445312 466.25 C 744.257812 466.292969 743.0625 466.355469 741.863281 466.386719 C 736.777344 466.632812 731.992188 466.859375 727.203125 466.132812 C 723.328125 465.566406 719.296875 465.929688 715.417969 466.269531 C 712.714844 466.515625 709.90625 466.773438 707.253906 466.675781 L 623.699219 463.785156 C 623.496094 461.0625 623.417969 458.339844 623.496094 455.621094 C 642.472656 457.617188 662.003906 459.140625 681.195312 459.140625 C 683.824219 459.140625 686.453125 459.109375 689.082031 459.066406 C 696.367188 458.886719 703.6875 458.777344 710.996094 458.683594 C 714.03125 458.640625 717.066406 458.597656 720.089844 458.566406 C 723.125 458.597656 726.167969 458.640625 729.203125 458.683594 C 736.492188 458.777344 743.808594 458.886719 751.117188 459.066406 C 753.726562 459.132812 756.355469 459.140625 759.003906 459.140625 C 778.171875 459.140625 797.726562 457.617188 816.683594 455.621094 "/><path style=" stroke:none;fill-rule:nonzero;fill:#333333;fill-opacity:1;" d="M 816.210938 466.632812 C 816.136719 467.296875 816.050781 467.96875 815.976562 468.628906 C 815.667969 470.804688 815.1875 473.015625 813.753906 474.222656 C 812.332031 475.417969 810.761719 475.351562 808.742188 475.246094 C 808.199219 475.234375 807.609375 475.191406 807.042969 475.214844 C 803.550781 475.234375 800.054688 475.246094 796.5625 475.265625 C 789.585938 475.332031 782.597656 475.417969 775.609375 475.535156 C 761.730469 475.777344 747.644531 476.152344 733.703125 476.6875 C 730.59375 476.804688 727.503906 476.867188 724.394531 476.941406 C 721.382812 477.027344 718.367188 477.082031 715.367188 477.210938 C 713.601562 477.261719 711.902344 477.101562 710.109375 476.941406 C 708.910156 476.847656 707.703125 476.71875 706.476562 476.6875 C 692.554688 476.152344 678.449219 475.777344 664.570312 475.535156 C 657.601562 475.417969 650.613281 475.332031 643.625 475.265625 C 640.132812 475.246094 636.625 475.234375 633.132812 475.214844 C 632.546875 475.191406 632 475.234375 631.445312 475.246094 C 629.4375 475.351562 627.863281 475.417969 626.453125 474.222656 C 625.011719 473.015625 624.53125 470.804688 624.230469 468.628906 C 624.125 467.96875 624.0625 467.296875 623.984375 466.632812 L 707.160156 469.492188 C 707.585938 469.515625 707.992188 469.515625 708.410156 469.515625 C 710.835938 469.515625 713.28125 469.300781 715.664062 469.097656 C 719.382812 468.757812 723.242188 468.40625 726.777344 468.9375 C 731.84375 469.675781 737.003906 469.460938 741.992188 469.214844 C 743.179688 469.171875 744.355469 469.121094 745.539062 469.078125 L 816.210938 466.632812 "/><path style=" stroke:none;fill-rule:nonzero;fill:#c1272d;fill-opacity:1;" d="M 813.691406 297.871094 L 796.882812 298.597656 C 794.296875 298.691406 791.734375 298.800781 789.148438 298.894531 L 789.039062 291.777344 C 792.277344 291.691406 795.503906 291.605469 798.65625 291.511719 C 803.261719 291.371094 807.835938 291.234375 812.417969 291.167969 C 812.558594 291.167969 812.859375 291.167969 812.984375 291.148438 C 813.648438 292.257812 813.691406 295.992188 813.691406 297.871094 "/><path style=" stroke:none;fill-rule:nonzero;fill:#f15a24;fill-opacity:1;" d="M 800.335938 415.824219 L 797.023438 436.101562 C 792.480469 435.984375 787.972656 435.738281 783.570312 435.332031 C 783.527344 435.332031 783.484375 435.332031 783.441406 435.332031 C 784.230469 433.519531 784.777344 431.664062 785.269531 430.007812 C 785.996094 427.488281 786.679688 424.800781 787.339844 422.1875 C 787.875 420.125 788.421875 417.980469 788.964844 415.941406 C 792.738281 415.921875 796.542969 415.890625 800.335938 415.824219 "/><path style=" stroke:none;fill-rule:nonzero;fill:#666666;fill-opacity:1;" d="M 720.613281 389.296875 L 797 389.007812 C 794.117188 390.980469 791.285156 393.246094 788.835938 395.953125 C 784.371094 400.875 781.957031 406.542969 781.804688 412.089844 C 780.621094 411.972656 779.421875 411.878906 778.238281 411.75 C 778.054688 411.652344 777.832031 411.589844 777.605469 411.589844 C 777.46875 411.589844 777.339844 411.632812 777.222656 411.664062 C 758.257812 409.933594 739.097656 409.304688 720.089844 409.839844 C 701.101562 409.304688 681.921875 409.933594 662.953125 411.664062 C 662.835938 411.632812 662.710938 411.589844 662.589844 411.589844 C 662.347656 411.589844 662.121094 411.652344 661.929688 411.769531 C 660.734375 411.878906 659.558594 411.972656 658.371094 412.089844 C 658.253906 406.542969 655.808594 400.875 651.363281 395.953125 C 648.914062 393.246094 646.0625 390.980469 643.175781 389.007812 L 719.566406 389.296875 C 719.585938 389.296875 719.585938 389.296875 719.585938 389.296875 C 719.585938 389.296875 719.585938 389.296875 719.609375 389.296875 L 720.589844 389.296875 C 720.613281 389.296875 720.613281 389.296875 720.613281 389.296875 "/><path style=" stroke:none;fill-rule:nonzero;fill:#ed1c24;fill-opacity:1;" d="M 786.207031 291.820312 L 786.335938 299.011719 C 783.503906 299.140625 780.695312 299.257812 777.894531 299.363281 C 774.742188 299.460938 771.546875 299.558594 768.375 299.644531 C 768.515625 298.050781 768.257812 296.472656 767.96875 295.222656 C 767.894531 294.796875 767.789062 294.371094 767.691406 293.976562 C 767.507812 293.230469 767.347656 292.503906 767.222656 291.777344 L 777.105469 291.875 C 780.128906 291.917969 783.183594 291.875 786.207031 291.820312 "/><path style=" stroke:none;fill-rule:nonzero;fill:#666666;fill-opacity:1;" d="M 779.039062 414.671875 C 781.027344 414.855469 783.003906 415.058594 784.980469 415.28125 C 784.433594 417.234375 783.933594 419.242188 783.429688 421.195312 C 782.757812 423.777344 782.09375 426.445312 781.390625 428.878906 C 780.535156 431.789062 779.488281 435.398438 777.105469 437.476562 C 774.132812 440.039062 769.605469 440.082031 764.839844 439.878906 C 755.199219 439.472656 745.894531 439.335938 736.855469 439.21875 C 731.703125 439.132812 726.5 439.046875 721.179688 438.929688 C 721.082031 438.910156 720.976562 438.867188 720.878906 438.886719 C 720.613281 438.886719 720.355469 438.886719 720.089844 438.886719 C 719.832031 438.886719 719.585938 438.886719 719.320312 438.886719 C 719.203125 438.867188 719.117188 438.910156 719 438.929688 C 713.6875 439.046875 708.472656 439.132812 703.324219 439.21875 C 694.316406 439.335938 684.976562 439.472656 675.359375 439.878906 C 670.59375 440.082031 666.042969 440.039062 663.074219 437.476562 C 660.691406 435.398438 659.644531 431.789062 658.808594 428.878906 C 658.082031 426.445312 657.421875 423.777344 656.769531 421.195312 C 656.265625 419.242188 655.742188 417.234375 655.21875 415.28125 C 657.175781 415.058594 659.160156 414.855469 661.136719 414.671875 C 661.234375 420 662.429688 425.355469 664.632812 430.210938 C 665.476562 432.089844 666.628906 434.171875 668.628906 435.484375 C 670.691406 436.828125 673.117188 437 675.617188 437.074219 C 678.875 437.179688 682.144531 437.210938 685.425781 437.210938 C 690.011719 437.210938 694.574219 437.117188 699.125 436.933594 C 705.503906 436.667969 712.757812 436.390625 720.046875 436.59375 C 720.066406 436.59375 720.066406 436.570312 720.089844 436.570312 C 720.109375 436.570312 720.132812 436.59375 720.132812 436.59375 C 727.441406 436.390625 734.675781 436.667969 741.085938 436.933594 C 745.605469 437.117188 750.1875 437.210938 754.761719 437.210938 C 758.03125 437.210938 761.300781 437.179688 764.582031 437.074219 C 767.082031 437 769.484375 436.828125 771.546875 435.484375 C 773.566406 434.171875 774.699219 432.089844 775.542969 430.210938 C 777.746094 425.355469 778.941406 420.019531 779.039062 414.671875 "/><path style=" stroke:none;fill-rule:nonzero;fill:#333333;fill-opacity:1;" d="M 776.21875 414.417969 C 776.152344 419.441406 775.0625 424.480469 772.980469 429.039062 C 772.296875 430.550781 771.410156 432.207031 770.011719 433.113281 C 768.558594 434.042969 766.65625 434.191406 764.476562 434.246094 C 756.761719 434.46875 748.917969 434.425781 741.179688 434.105469 C 734.757812 433.859375 727.484375 433.5625 720.089844 433.765625 C 712.714844 433.5625 705.417969 433.859375 698.996094 434.105469 C 691.28125 434.425781 683.4375 434.46875 675.703125 434.246094 C 673.542969 434.191406 671.621094 434.042969 670.1875 433.113281 C 668.777344 432.207031 667.882812 430.550781 667.21875 429.039062 C 665.136719 424.480469 664.023438 419.441406 663.96875 414.417969 C 682.488281 412.742188 701.175781 412.15625 719.726562 412.65625 C 719.769531 412.65625 719.789062 412.675781 719.8125 412.675781 C 719.90625 412.675781 719.992188 412.675781 720.089844 412.65625 C 720.183594 412.675781 720.292969 412.675781 720.386719 412.675781 C 720.410156 412.675781 720.429688 412.65625 720.453125 412.65625 C 739 412.15625 757.691406 412.742188 776.21875 414.417969 "/><path style=" stroke:none;fill-rule:nonzero;fill:#c1272d;fill-opacity:1;" d="M 765.222656 295.832031 C 765.488281 297.039062 765.703125 298.4375 765.488281 299.71875 C 760.683594 299.867188 755.832031 299.960938 751 300.027344 C 751.523438 297.242188 751.472656 294.371094 750.839844 291.605469 L 764.378906 291.757812 C 764.519531 292.738281 764.722656 293.710938 764.945312 294.636719 C 765.042969 295.042969 765.125 295.425781 765.222656 295.832031 "/><path style=" stroke:none;fill-rule:nonzero;fill:#ed1c24;fill-opacity:1;" d="M 747.921875 291.574219 C 748.660156 294.339844 748.757812 297.242188 748.125 300.027344 C 748.125 300.046875 748.125 300.046875 748.125 300.070312 C 742.589844 300.121094 737.046875 300.164062 731.480469 300.164062 C 731.5 299.921875 731.5 299.683594 731.523438 299.441406 C 731.746094 296.804688 731.726562 294.09375 731.566406 291.4375 C 732.71875 291.4375 733.882812 291.4375 735.039062 291.445312 L 747.921875 291.574219 "/><path style=" stroke:none;fill-rule:nonzero;fill:#e6e6e6;fill-opacity:1;" d="M 728.734375 291.402344 C 728.902344 294.007812 728.914062 296.632812 728.699219 299.214844 C 728.679688 299.523438 728.679688 299.84375 728.679688 300.164062 C 726.894531 300.144531 725.144531 300.164062 723.378906 300.144531 C 719.46875 300.273438 715.503906 300.28125 711.539062 300.324219 C 711.519531 299.941406 711.519531 299.558594 711.488281 299.214844 C 711.285156 296.632812 711.285156 294.007812 711.445312 291.402344 C 717.226562 291.394531 722.972656 291.394531 728.734375 291.402344 "/><path style=" stroke:none;fill-rule:nonzero;fill:#29abe2;fill-opacity:1;" d="M 708.71875 300.367188 C 703.195312 300.390625 697.640625 300.324219 692.050781 300.207031 C 692.050781 300.144531 692.070312 300.089844 692.050781 300.027344 C 691.441406 297.242188 691.527344 294.339844 692.253906 291.574219 L 705.140625 291.445312 C 706.292969 291.4375 707.457031 291.4375 708.613281 291.4375 C 708.453125 294.09375 708.453125 296.804688 708.675781 299.460938 C 708.699219 299.738281 708.699219 300.070312 708.71875 300.367188 "/><path style=" stroke:none;fill-rule:nonzero;fill:#0071bc;fill-opacity:1;" d="M 675.832031 291.757812 L 689.359375 291.605469 C 688.71875 294.414062 688.652344 297.328125 689.21875 300.144531 C 684.410156 300.046875 679.558594 299.921875 674.707031 299.761719 C 674.496094 298.449219 674.699219 297.058594 674.976562 295.832031 C 675.0625 295.425781 675.15625 295.023438 675.253906 294.617188 C 675.476562 293.6875 675.679688 292.738281 675.832031 291.757812 "/><path style=" stroke:none;fill-rule:nonzero;fill:#29abe2;fill-opacity:1;" d="M 663.09375 291.875 L 672.976562 291.777344 C 672.847656 292.503906 672.6875 293.207031 672.507812 293.953125 C 672.410156 294.371094 672.316406 294.796875 672.207031 295.222656 C 671.929688 296.496094 671.664062 298.074219 671.824219 299.683594 C 668.648438 299.558594 665.476562 299.460938 662.292969 299.363281 C 659.480469 299.257812 656.671875 299.140625 653.863281 299.011719 L 653.96875 291.832031 C 657.015625 291.894531 660.070312 291.917969 663.09375 291.875 "/><path style=" stroke:none;fill-rule:nonzero;fill:#f15a24;fill-opacity:1;" d="M 656.757812 435.332031 C 656.714844 435.332031 656.652344 435.332031 656.609375 435.332031 C 652.207031 435.738281 647.71875 435.984375 643.15625 436.101562 L 639.863281 415.824219 C 643.65625 415.890625 647.460938 415.921875 651.222656 415.941406 C 651.789062 417.980469 652.324219 420.125 652.859375 422.1875 C 653.5 424.800781 654.191406 427.488281 654.910156 430.007812 C 655.402344 431.664062 655.945312 433.519531 656.757812 435.332031 "/><path style=" stroke:none;fill-rule:nonzero;fill:#666666;fill-opacity:1;" d="M 655.539062 412.398438 C 655.089844 412.453125 654.632812 412.496094 654.171875 412.558594 C 653.808594 412.175781 653.316406 411.929688 652.75 411.929688 C 642.75 411.878906 632.492188 411.695312 622.554688 411.523438 C 618.34375 411.449219 614.058594 411.386719 609.796875 411.300781 C 603.417969 400.9375 596.363281 389.316406 598.523438 378.21875 C 600.832031 382.167969 604.976562 385.402344 610.148438 387.074219 C 615.707031 388.890625 621.519531 388.910156 627.136719 388.953125 L 637.941406 388.984375 C 641.882812 391.386719 645.988281 394.214844 649.257812 397.84375 C 653.261719 402.261719 655.496094 407.511719 655.539062 412.398438 "/><path style=" stroke:none;fill-rule:nonzero;fill:#0071bc;fill-opacity:1;" d="M 651.136719 291.777344 L 651.042969 298.894531 C 648.464844 298.800781 645.878906 298.691406 643.316406 298.597656 L 626.507812 297.871094 C 626.507812 296.015625 626.550781 292.300781 627.191406 291.167969 C 627.375 291.167969 627.640625 291.167969 627.78125 291.167969 C 632.34375 291.234375 636.9375 291.371094 641.519531 291.511719 C 644.695312 291.605469 647.898438 291.714844 651.136719 291.777344 "/><path style=" stroke:none;fill-rule:nonzero;fill:#f2f2f2;fill-opacity:1;" d="M 630.023438 428.738281 C 630.929688 426.816406 630.835938 424.363281 629.757812 422.347656 C 628.953125 420.832031 627.660156 419.902344 626.144531 419.742188 C 624.308594 419.5625 622.328125 420.488281 620.835938 422.261719 C 619.273438 424.117188 618.835938 426.625 619.703125 428.621094 C 620.566406 430.660156 622.691406 431.972656 624.894531 431.972656 C 625.238281 431.972656 625.601562 431.929688 625.941406 431.84375 C 627.800781 431.480469 629.253906 430.390625 630.023438 428.738281 Z M 637.03125 416.070312 L 640.3125 436.207031 C 631.625 436.347656 622.609375 436.003906 613.214844 435.195312 C 611.964844 428.664062 611.515625 422.003906 611.835938 415.378906 C 615.417969 415.441406 618.976562 415.503906 622.46875 415.558594 C 627.277344 415.644531 632.148438 415.730469 637.03125 415.78125 C 637.03125 415.890625 637.011719 415.964844 637.03125 416.070312 "/><path style=" stroke:none;fill-rule:nonzero;fill:#4d4d4d;fill-opacity:1;" d="M 633.035156 386.148438 L 627.136719 386.105469 C 621.742188 386.082031 616.164062 386.0625 611.015625 384.386719 C 605.917969 382.734375 602.027344 379.445312 600.328125 375.507812 C 600.851562 375.230469 601.375 374.941406 601.898438 374.664062 C 603.171875 374.003906 604.433594 373.332031 605.597656 372.703125 C 605.660156 372.703125 605.757812 372.722656 605.84375 372.742188 C 615.160156 376.660156 624.265625 381.164062 633.035156 386.148438 "/><path style=" stroke:none;fill-rule:nonzero;fill:#000000;fill-opacity:1;" d="M 627.480469 427.53125 C 628.003906 426.421875 627.917969 424.90625 627.253906 423.679688 C 626.890625 422.964844 626.433594 422.601562 625.867188 422.546875 C 624.992188 422.464844 623.859375 423.070312 623.015625 424.074219 C 622.289062 424.949219 621.785156 426.335938 622.289062 427.511719 C 622.769531 428.621094 624.167969 429.324219 625.398438 429.078125 C 626.390625 428.898438 627.074219 428.375 627.480469 427.53125 Z M 629.757812 422.347656 C 630.835938 424.363281 630.929688 426.816406 630.023438 428.738281 C 629.253906 430.390625 627.800781 431.480469 625.941406 431.84375 C 625.601562 431.929688 625.238281 431.972656 624.894531 431.972656 C 622.691406 431.972656 620.566406 430.660156 619.703125 428.621094 C 618.835938 426.625 619.273438 424.117188 620.835938 422.261719 C 622.328125 420.488281 624.308594 419.5625 626.144531 419.742188 C 627.660156 419.902344 628.953125 420.832031 629.757812 422.347656 "/><path style=" stroke:none;fill-rule:nonzero;fill:#f2f2f2;fill-opacity:1;" d="M 627.253906 423.679688 C 627.917969 424.90625 628.003906 426.421875 627.480469 427.53125 C 627.074219 428.375 626.390625 428.898438 625.398438 429.078125 C 624.167969 429.324219 622.769531 428.621094 622.289062 427.511719 C 621.785156 426.335938 622.289062 424.949219 623.015625 424.074219 C 623.859375 423.070312 624.992188 422.464844 625.867188 422.546875 C 626.433594 422.601562 626.890625 422.964844 627.253906 423.679688 "/><path style=" stroke:none;fill-rule:nonzero;fill:#333333;fill-opacity:1;" d="M 616.347656 502.265625 C 615.800781 504.785156 615.34375 507.335938 615.011719 509.875 C 614.914062 510.675781 614.894531 511.53125 614.871094 512.4375 C 614.851562 513.652344 614.828125 515.457031 614.464844 516.042969 C 613.011719 518.433594 607.253906 518.242188 604.785156 518.167969 L 588.246094 517.625 C 587.21875 517.601562 585.796875 517.558594 585.15625 517.078125 C 584.300781 516.429688 584.140625 514.539062 584.097656 512.777344 C 583.800781 502.449219 583.683594 492.011719 583.640625 481.648438 C 588.148438 488.808594 595.316406 494.816406 604.144531 498.574219 C 607.90625 500.164062 611.964844 501.378906 616.347656 502.265625 "/><path style=" stroke:none;fill-rule:nonzero;fill:#f2f2f2;fill-opacity:1;" d="M 599.785156 415.21875 C 602.851562 415.238281 605.9375 415.28125 609.015625 415.34375 C 608.695312 421.875 609.132812 428.460938 610.308594 434.917969 C 605.683594 434.46875 600.96875 433.925781 596.140625 433.261719 L 596.140625 433.242188 C 596.085938 427.085938 597.359375 420.875 599.785156 415.21875 "/><path style=" stroke:none;fill-rule:nonzero;fill:#4d4d4d;fill-opacity:1;" d="M 606.453125 411.269531 C 601.695312 411.203125 596.972656 411.140625 592.285156 411.109375 C 592.261719 411.109375 592.261719 411.109375 592.261719 411.109375 C 591.695312 411.109375 591.128906 411.34375 590.753906 411.792969 C 585.777344 417.363281 583.117188 425.003906 583.4375 432.472656 C 582.464844 432.859375 581.535156 433.335938 580.667969 433.902344 C 580.082031 427.789062 579.492188 421.671875 578.949219 415.300781 C 576.929688 400.105469 577.292969 385.359375 579.738281 383.746094 C 584.066406 380.855469 587.335938 378.015625 589.011719 376.480469 L 595.90625 376.925781 C 593.191406 388.785156 600.179688 401.035156 606.453125 411.269531 "/><path style=" stroke:none;fill-rule:nonzero;fill:#f7931e;fill-opacity:1;" d="M 593.191406 415.164062 C 594.367188 415.164062 595.554688 415.175781 596.75 415.175781 C 594.503906 420.765625 593.332031 426.816406 593.332031 432.835938 C 591.375 432.558594 589.417969 432.269531 587.410156 431.949219 C 587.25 425.910156 589.355469 419.796875 593.191406 415.164062 "/><path style=" stroke:none;fill-rule:nonzero;fill:#666666;fill-opacity:1;" d="M 587.964844 365.082031 C 588.125 365.175781 588.265625 365.261719 588.40625 365.316406 C 587.21875 368.230469 586.320312 370.472656 585.863281 371.71875 C 585.230469 372.304688 583.90625 373.511719 582.078125 374.984375 C 577.539062 374.910156 572.976562 374.367188 568.53125 373.277344 C 565.859375 372.625 562.140625 371.453125 560.664062 368.730469 C 559.167969 366.011719 560.398438 362.457031 562.363281 360.355469 C 565.398438 357.132812 570.484375 355.636719 578.039062 355.820312 C 580.507812 355.859375 582.988281 356.097656 584.546875 357.472656 C 586.066406 358.828125 586.609375 361.144531 587.132812 363.8125 C 587.230469 364.335938 587.519531 364.78125 587.964844 365.082031 "/></g></svg>